<?xml version="1.0" encoding="UTF-8" standalone="no"?>
<!DOCTYPE svg PUBLIC "-//W3C//DTD SVG 1.1//EN"
 "http://www.w3.org/Graphics/SVG/1.1/DTD/svg11.dtd">
<!-- Generated by graphviz version 2.43.0 (0)
 -->
<!-- Title: src/app/seamly2d/dialogs/layoutsettings_dialog.h Pages: 1 -->
<!--zoomable 240 -->
<svg id="main" version="1.1" xmlns="http://www.w3.org/2000/svg" xmlns:xlink="http://www.w3.org/1999/xlink" xml:space="preserve" onload="init(evt)">
<style type="text/css"><![CDATA[
.edge:hover path { stroke: red; }
.edge:hover polygon { stroke: red; fill: red; }
]]></style>
<script type="text/javascript"><![CDATA[
var edges = document.getElementsByTagName('g');
if (edges && edges.length) {
  for (var i=0;i<edges.length;i++) {
    if (edges[i].id.substr(0,4)=='edge') {
      edges[i].setAttribute('class','edge');
    }
  }
}
]]></script>
        <defs>
                <circle id="rim" cx="0" cy="0" r="7"/>
                <circle id="rim2" cx="0" cy="0" r="3.5"/>
                <g id="zoomPlus">
                        <use xlink:href="#rim" fill="#404040">
                                <set attributeName="fill" to="#808080" begin="zoomplus.mouseover" end="zoomplus.mouseout"/>
                        </use>
                        <path d="M-4,0h8M0,-4v8" fill="none" stroke="white" stroke-width="1.5" pointer-events="none"/>
                </g>
                <g id="zoomMin">
                        <use xlink:href="#rim" fill="#404040">
                                <set attributeName="fill" to="#808080" begin="zoomminus.mouseover" end="zoomminus.mouseout"/>
                        </use>
                        <path d="M-4,0h8" fill="none" stroke="white" stroke-width="1.5" pointer-events="none"/>
                </g>
                <g id="dirArrow">
                        <path fill="none" stroke="white" stroke-width="1.5" d="M0,-3.0v7 M-2.5,-0.5L0,-3.0L2.5,-0.5"/>
                </g>
               <g id="resetDef">
                       <use xlink:href="#rim2" fill="#404040">
                               <set attributeName="fill" to="#808080" begin="reset.mouseover" end="reset.mouseout"/>
                       </use>
               </g>
        </defs>

<script type="text/javascript">
var viewWidth = 4179;
var viewHeight = 240;
var sectionId = 'dynsection-1';
</script>
<script xlink:href="../../svgpan.js"/>
<svg id="graph" class="graph">
<g id="viewport">
<title>src/app/seamly2d/dialogs/layoutsettings_dialog.h</title>
<polygon fill="white" stroke="transparent" points="-4,4 -4,-236 4174.5,-236 4174.5,4 -4,4"/>
<!-- Node1 -->
<g id="node1" class="node">
<title>Node1</title>
<g id="a_node1"><a xlink:title=" ">
<polygon fill="#bfbfbf" stroke="black" points="1573.5,-201.5 1573.5,-231.5 1714.5,-231.5 1714.5,-201.5 1573.5,-201.5"/>
<text text-anchor="start" x="1581.5" y="-219.5" font-family="Helvetica,sans-Serif" font-size="10.00">src/app/seamly2d/dialogs</text>
<text text-anchor="middle" x="1644" y="-208.5" font-family="Helvetica,sans-Serif" font-size="10.00">/layoutsettings_dialog.h</text>
</a>
</g>
</g>
<!-- Node2 -->
<g id="node2" class="node">
<title>Node2</title>
<g id="a_node2"><a xlink:href="../../df/d9b/vcmdexport_8cpp.html" target="_top" xlink:title=" ">
<polygon fill="white" stroke="black" points="887.5,-67.5 887.5,-97.5 1014.5,-97.5 1014.5,-67.5 887.5,-67.5"/>
<text text-anchor="start" x="895.5" y="-85.5" font-family="Helvetica,sans-Serif" font-size="10.00">src/app/seamly2d/core</text>
<text text-anchor="middle" x="951" y="-74.5" font-family="Helvetica,sans-Serif" font-size="10.00">/vcmdexport.cpp</text>
</a>
</g>
</g>
<!-- Node1&#45;&gt;Node2 -->
<g id="edge1" class="edge">
<title>Node1&#45;&gt;Node2</title>
<path fill="none" stroke="midnightblue" d="M1563.23,-200.43C1444.86,-178.28 1217.33,-135.52 1024,-98 1020.96,-97.41 1017.84,-96.8 1014.69,-96.19"/>
<polygon fill="midnightblue" stroke="midnightblue" points="1562.82,-203.91 1573.3,-202.31 1564.11,-197.03 1562.82,-203.91"/>
</g>
<!-- Node3 -->
<g id="node3" class="node">
<title>Node3</title>
<g id="a_node3"><a xlink:href="../../dd/d57/vcmdexport_8h.html" target="_top" xlink:title=" ">
<polygon fill="white" stroke="black" points="1449.5,-134.5 1449.5,-164.5 1576.5,-164.5 1576.5,-134.5 1449.5,-134.5"/>
<text text-anchor="start" x="1457.5" y="-152.5" font-family="Helvetica,sans-Serif" font-size="10.00">src/app/seamly2d/core</text>
<text text-anchor="middle" x="1513" y="-141.5" font-family="Helvetica,sans-Serif" font-size="10.00">/vcmdexport.h</text>
</a>
</g>
</g>
<!-- Node1&#45;&gt;Node3 -->
<g id="edge2" class="edge">
<title>Node1&#45;&gt;Node3</title>
<path fill="none" stroke="midnightblue" d="M1606.42,-196.85C1585.71,-186.58 1560.41,-174.03 1541.37,-164.58"/>
<polygon fill="midnightblue" stroke="midnightblue" points="1605.06,-200.09 1615.57,-201.4 1608.17,-193.82 1605.06,-200.09"/>
</g>
<!-- Node19 -->
<g id="node19" class="node">
<title>Node19</title>
<g id="a_node19"><a xlink:href="../../d0/dfa/layoutsettings__dialog_8cpp.html" target="_top" xlink:title=" ">
<polygon fill="white" stroke="black" points="3786.5,-0.5 3786.5,-30.5 3931.5,-30.5 3931.5,-0.5 3786.5,-0.5"/>
<text text-anchor="start" x="3794.5" y="-18.5" font-family="Helvetica,sans-Serif" font-size="10.00">src/app/seamly2d/dialogs</text>
<text text-anchor="middle" x="3859" y="-7.5" font-family="Helvetica,sans-Serif" font-size="10.00">/layoutsettings_dialog.cpp</text>
</a>
</g>
</g>
<!-- Node1&#45;&gt;Node19 -->
<g id="edge32" class="edge">
<title>Node1&#45;&gt;Node19</title>
<path fill="none" stroke="midnightblue" d="M1724.85,-211.1C2007.9,-195.15 2980.23,-135.7 3777,-31 3780.01,-30.6 3783.08,-30.18 3786.17,-29.72"/>
<polygon fill="midnightblue" stroke="midnightblue" points="1724.46,-207.62 1714.67,-211.67 1724.85,-214.61 1724.46,-207.62"/>
</g>
<!-- Node25 -->
<g id="node25" class="node">
<title>Node25</title>
<g id="a_node25"><a xlink:href="../../d8/de8/mainwindowsnogui_8cpp.html" target="_top" xlink:title=" ">
<polygon fill="white" stroke="black" points="3949.5,-6 3949.5,-25 4170.5,-25 4170.5,-6 3949.5,-6"/>
<text text-anchor="middle" x="4060" y="-13" font-family="Helvetica,sans-Serif" font-size="10.00">src/app/seamly2d/mainwindowsnogui.cpp</text>
</a>
</g>
</g>
<!-- Node1&#45;&gt;Node25 -->
<g id="edge33" class="edge">
<title>Node1&#45;&gt;Node25</title>
<path fill="none" stroke="midnightblue" d="M1724.83,-212.44C1891.82,-205.88 2286.96,-189.06 2618,-165 2936.77,-141.83 3016.04,-130.42 3334,-98 3604.02,-70.47 3671.4,-62.3 3941,-31 3957.23,-29.12 3974.69,-27.02 3991.11,-25.03"/>
<polygon fill="midnightblue" stroke="midnightblue" points="1724.5,-208.95 1714.64,-212.84 1724.77,-215.95 1724.5,-208.95"/>
</g>
<!-- Node3&#45;&gt;Node2 -->
<g id="edge27" class="edge">
<title>Node3&#45;&gt;Node2</title>
<path fill="none" stroke="midnightblue" d="M1439.01,-139.03C1424.75,-137.29 1409.92,-135.54 1396,-134 1230.9,-115.78 1188.33,-122.21 1024,-98 1020.93,-97.55 1017.8,-97.05 1014.64,-96.53"/>
<polygon fill="midnightblue" stroke="midnightblue" points="1438.93,-142.54 1449.28,-140.29 1439.78,-135.59 1438.93,-142.54"/>
</g>
<!-- Node4 -->
<g id="node4" class="node">
<title>Node4</title>
<g id="a_node4"><a xlink:href="../../d7/d61/application__2d_8h.html" target="_top" xlink:title=" ">
<polygon fill="white" stroke="black" points="1841.5,-67.5 1841.5,-97.5 1968.5,-97.5 1968.5,-67.5 1841.5,-67.5"/>
<text text-anchor="start" x="1849.5" y="-85.5" font-family="Helvetica,sans-Serif" font-size="10.00">src/app/seamly2d/core</text>
<text text-anchor="middle" x="1905" y="-74.5" font-family="Helvetica,sans-Serif" font-size="10.00">/application_2d.h</text>
</a>
</g>
</g>
<!-- Node3&#45;&gt;Node4 -->
<g id="edge3" class="edge">
<title>Node3&#45;&gt;Node4</title>
<path fill="none" stroke="midnightblue" d="M1586.96,-136.24C1660.44,-124.05 1771.92,-105.57 1841.5,-94.03"/>
<polygon fill="midnightblue" stroke="midnightblue" points="1586.15,-132.82 1576.85,-137.91 1587.29,-139.73 1586.15,-132.82"/>
</g>
<!-- Node28 -->
<g id="node28" class="node">
<title>Node28</title>
<g id="a_node28"><a xlink:href="../../d9/d53/mainwindow_8h.html" target="_top" xlink:title=" ">
<polygon fill="white" stroke="black" points="1033,-73 1033,-92 1209,-92 1209,-73 1033,-73"/>
<text text-anchor="middle" x="1121" y="-80" font-family="Helvetica,sans-Serif" font-size="10.00">src/app/seamly2d/mainwindow.h</text>
</a>
</g>
</g>
<!-- Node3&#45;&gt;Node28 -->
<g id="edge28" class="edge">
<title>Node3&#45;&gt;Node28</title>
<path fill="none" stroke="midnightblue" d="M1438.91,-136.22C1360.98,-123.29 1240.38,-103.3 1172.32,-92.01"/>
<polygon fill="midnightblue" stroke="midnightblue" points="1438.71,-139.73 1449.15,-137.91 1439.85,-132.82 1438.71,-139.73"/>
</g>
<!-- Node5 -->
<g id="node5" class="node">
<title>Node5</title>
<g id="a_node5"><a xlink:href="../../df/d3e/application__2d_8cpp.html" target="_top" xlink:title=" ">
<polygon fill="white" stroke="black" points="206.5,-0.5 206.5,-30.5 333.5,-30.5 333.5,-0.5 206.5,-0.5"/>
<text text-anchor="start" x="214.5" y="-18.5" font-family="Helvetica,sans-Serif" font-size="10.00">src/app/seamly2d/core</text>
<text text-anchor="middle" x="270" y="-7.5" font-family="Helvetica,sans-Serif" font-size="10.00">/application_2d.cpp</text>
</a>
</g>
</g>
<!-- Node4&#45;&gt;Node5 -->
<g id="edge4" class="edge">
<title>Node4&#45;&gt;Node5</title>
<path fill="none" stroke="midnightblue" d="M1830.87,-79.83C1540.68,-73.2 490.51,-48.23 342,-31 339.21,-30.68 336.37,-30.3 333.51,-29.89"/>
<polygon fill="midnightblue" stroke="midnightblue" points="1831.2,-83.34 1841.27,-80.07 1831.36,-76.34 1831.2,-83.34"/>
</g>
<!-- Node6 -->
<g id="node6" class="node">
<title>Node6</title>
<g id="a_node6"><a xlink:href="../../d9/d7f/about2d__dialog_8cpp.html" target="_top" xlink:title=" ">
<polygon fill="white" stroke="black" points="2375.5,-0.5 2375.5,-30.5 2516.5,-30.5 2516.5,-0.5 2375.5,-0.5"/>
<text text-anchor="start" x="2383.5" y="-18.5" font-family="Helvetica,sans-Serif" font-size="10.00">src/app/seamly2d/dialogs</text>
<text text-anchor="middle" x="2446" y="-7.5" font-family="Helvetica,sans-Serif" font-size="10.00">/about2d_dialog.cpp</text>
</a>
</g>
</g>
<!-- Node4&#45;&gt;Node6 -->
<g id="edge5" class="edge">
<title>Node4&#45;&gt;Node6</title>
<path fill="none" stroke="midnightblue" d="M1978.8,-75.03C2069.99,-66.65 2229.82,-50.78 2366,-31 2369.07,-30.55 2372.21,-30.08 2375.37,-29.58"/>
<polygon fill="midnightblue" stroke="midnightblue" points="1978.2,-71.57 1968.56,-75.96 1978.84,-78.54 1978.2,-71.57"/>
</g>
<!-- Node7 -->
<g id="node7" class="node">
<title>Node7</title>
<g id="a_node7"><a xlink:href="../../dd/db4/abstractlayout__dialog_8cpp.html" target="_top" xlink:title=" ">
<polygon fill="white" stroke="black" points="2535,-0.5 2535,-30.5 2681,-30.5 2681,-0.5 2535,-0.5"/>
<text text-anchor="start" x="2543" y="-18.5" font-family="Helvetica,sans-Serif" font-size="10.00">src/app/seamly2d/dialogs</text>
<text text-anchor="middle" x="2608" y="-7.5" font-family="Helvetica,sans-Serif" font-size="10.00">/abstractlayout_dialog.cpp</text>
</a>
</g>
</g>
<!-- Node4&#45;&gt;Node7 -->
<g id="edge6" class="edge">
<title>Node4&#45;&gt;Node7</title>
<path fill="none" stroke="midnightblue" d="M1978.79,-77.68C2095.2,-71.17 2328.47,-56.12 2525,-31 2528.19,-30.59 2531.45,-30.15 2534.73,-29.67"/>
<polygon fill="midnightblue" stroke="midnightblue" points="1978.36,-74.2 1968.57,-78.25 1978.75,-81.19 1978.36,-74.2"/>
</g>
<!-- Node8 -->
<g id="node8" class="node">
<title>Node8</title>
<g id="a_node8"><a xlink:href="../../d7/dfa/calculator__dialog_8cpp.html" target="_top" xlink:title=" ">
<polygon fill="white" stroke="black" points="2699.5,-0.5 2699.5,-30.5 2840.5,-30.5 2840.5,-0.5 2699.5,-0.5"/>
<text text-anchor="start" x="2707.5" y="-18.5" font-family="Helvetica,sans-Serif" font-size="10.00">src/app/seamly2d/dialogs</text>
<text text-anchor="middle" x="2770" y="-7.5" font-family="Helvetica,sans-Serif" font-size="10.00">/calculator_dialog.cpp</text>
</a>
</g>
</g>
<!-- Node4&#45;&gt;Node8 -->
<g id="edge7" class="edge">
<title>Node4&#45;&gt;Node8</title>
<path fill="none" stroke="midnightblue" d="M1978.71,-79.59C2118.08,-75.34 2429.64,-62.86 2690,-31 2693.08,-30.62 2696.23,-30.2 2699.4,-29.75"/>
<polygon fill="midnightblue" stroke="midnightblue" points="1978.46,-76.09 1968.57,-79.89 1978.67,-83.09 1978.46,-76.09"/>
</g>
<!-- Node9 -->
<g id="node9" class="node">
<title>Node9</title>
<g id="a_node9"><a xlink:href="../../d9/d70/preferencesgraphicsviewpage_8cpp.html" target="_top" xlink:title=" ">
<polygon fill="white" stroke="black" points="2859,-0.5 2859,-30.5 3107,-30.5 3107,-0.5 2859,-0.5"/>
<text text-anchor="start" x="2867" y="-18.5" font-family="Helvetica,sans-Serif" font-size="10.00">src/app/seamly2d/dialogs</text>
<text text-anchor="middle" x="2983" y="-7.5" font-family="Helvetica,sans-Serif" font-size="10.00">/configpages/preferencesgraphicsviewpage.cpp</text>
</a>
</g>
</g>
<!-- Node4&#45;&gt;Node9 -->
<g id="edge8" class="edge">
<title>Node4&#45;&gt;Node9</title>
<path fill="none" stroke="midnightblue" d="M1978.76,-78.92C2137.9,-73.05 2525.25,-57.16 2849,-31 2852.27,-30.74 2855.57,-30.46 2858.91,-30.17"/>
<polygon fill="midnightblue" stroke="midnightblue" points="1978.48,-75.43 1968.61,-79.29 1978.73,-82.42 1978.48,-75.43"/>
</g>
<!-- Node10 -->
<g id="node10" class="node">
<title>Node10</title>
<g id="a_node10"><a xlink:href="../../d2/d2d/preferencesconfigurationpage_8cpp.html" target="_top" xlink:title=" ">
<polygon fill="white" stroke="black" points="3125.5,-0.5 3125.5,-30.5 3372.5,-30.5 3372.5,-0.5 3125.5,-0.5"/>
<text text-anchor="start" x="3133.5" y="-18.5" font-family="Helvetica,sans-Serif" font-size="10.00">src/app/seamly2d/dialogs</text>
<text text-anchor="middle" x="3249" y="-7.5" font-family="Helvetica,sans-Serif" font-size="10.00">/configpages/preferencesconfigurationpage.cpp</text>
</a>
</g>
</g>
<!-- Node4&#45;&gt;Node10 -->
<g id="edge9" class="edge">
<title>Node4&#45;&gt;Node10</title>
<path fill="none" stroke="midnightblue" d="M1978.88,-80.14C2168.16,-76.28 2685.89,-63.38 3116,-31 3119.13,-30.76 3122.29,-30.51 3125.49,-30.25"/>
<polygon fill="midnightblue" stroke="midnightblue" points="1978.7,-76.64 1968.77,-80.34 1978.84,-83.64 1978.7,-76.64"/>
</g>
<!-- Node11 -->
<g id="node11" class="node">
<title>Node11</title>
<g id="a_node11"><a xlink:href="../../dd/dc2/decimalchart__dialog_8cpp.html" target="_top" xlink:title=" ">
<polygon fill="white" stroke="black" points="3390.5,-0.5 3390.5,-30.5 3531.5,-30.5 3531.5,-0.5 3390.5,-0.5"/>
<text text-anchor="start" x="3398.5" y="-18.5" font-family="Helvetica,sans-Serif" font-size="10.00">src/app/seamly2d/dialogs</text>
<text text-anchor="middle" x="3461" y="-7.5" font-family="Helvetica,sans-Serif" font-size="10.00">/decimalchart_dialog.cpp</text>
</a>
</g>
</g>
<!-- Node4&#45;&gt;Node11 -->
<g id="edge10" class="edge">
<title>Node4&#45;&gt;Node11</title>
<path fill="none" stroke="midnightblue" d="M1978.6,-80.4C2237.36,-76.3 3104.58,-60.62 3381,-31 3384.09,-30.67 3387.24,-30.29 3390.41,-29.87"/>
<polygon fill="midnightblue" stroke="midnightblue" points="1978.5,-76.9 1968.55,-80.55 1978.61,-83.9 1978.5,-76.9"/>
</g>
<!-- Node12 -->
<g id="node12" class="node">
<title>Node12</title>
<g id="a_node12"><a xlink:href="../../dc/d63/preferencespatternpage_8cpp.html" target="_top" xlink:title=" ">
<polygon fill="white" stroke="black" points="3550,-0.5 3550,-30.5 3768,-30.5 3768,-0.5 3550,-0.5"/>
<text text-anchor="start" x="3558" y="-18.5" font-family="Helvetica,sans-Serif" font-size="10.00">src/app/seamly2d/dialogs</text>
<text text-anchor="middle" x="3659" y="-7.5" font-family="Helvetica,sans-Serif" font-size="10.00">/configpages/preferencespatternpage.cpp</text>
</a>
</g>
</g>
<!-- Node4&#45;&gt;Node12 -->
<g id="edge11" class="edge">
<title>Node4&#45;&gt;Node12</title>
<path fill="none" stroke="midnightblue" d="M1978.91,-81.59C2209.89,-81.37 2938.66,-76.83 3540,-31 3543.22,-30.75 3546.48,-30.49 3549.77,-30.2"/>
<polygon fill="midnightblue" stroke="midnightblue" points="1978.61,-78.09 1968.62,-81.6 1978.62,-85.09 1978.61,-78.09"/>
</g>
<!-- Node13 -->
<g id="node13" class="node">
<title>Node13</title>
<g id="a_node13"><a xlink:href="../../dc/d20/preferencespathpage_8cpp.html" target="_top" xlink:title=" ">
<polygon fill="white" stroke="black" points="520.5,-0.5 520.5,-30.5 725.5,-30.5 725.5,-0.5 520.5,-0.5"/>
<text text-anchor="start" x="528.5" y="-18.5" font-family="Helvetica,sans-Serif" font-size="10.00">src/app/seamly2d/dialogs</text>
<text text-anchor="middle" x="623" y="-7.5" font-family="Helvetica,sans-Serif" font-size="10.00">/configpages/preferencespathpage.cpp</text>
</a>
</g>
</g>
<!-- Node4&#45;&gt;Node13 -->
<g id="edge12" class="edge">
<title>Node4&#45;&gt;Node13</title>
<path fill="none" stroke="midnightblue" d="M1831.32,-80.51C1646.52,-77.55 1148.51,-66.63 735,-31 731.87,-30.73 728.7,-30.44 725.5,-30.13"/>
<polygon fill="midnightblue" stroke="midnightblue" points="1831.41,-84.01 1841.46,-80.67 1831.52,-77.01 1831.41,-84.01"/>
</g>
<!-- Node14 -->
<g id="node14" class="node">
<title>Node14</title>
<g id="a_node14"><a xlink:href="../../d2/d00/vtooloptionspropertybrowser_8cpp.html" target="_top" xlink:title=" ">
<polygon fill="white" stroke="black" points="744,-0.5 744,-30.5 924,-30.5 924,-0.5 744,-0.5"/>
<text text-anchor="start" x="752" y="-18.5" font-family="Helvetica,sans-Serif" font-size="10.00">src/app/seamly2d/core</text>
<text text-anchor="middle" x="834" y="-7.5" font-family="Helvetica,sans-Serif" font-size="10.00">/vtooloptionspropertybrowser.cpp</text>
</a>
</g>
</g>
<!-- Node4&#45;&gt;Node14 -->
<g id="edge13" class="edge">
<title>Node4&#45;&gt;Node14</title>
<path fill="none" stroke="midnightblue" d="M1831.08,-80.02C1668.39,-76.24 1267.23,-64.09 933,-31 930.06,-30.71 927.08,-30.39 924.06,-30.06"/>
<polygon fill="midnightblue" stroke="midnightblue" points="1831.37,-83.52 1841.45,-80.25 1831.53,-76.53 1831.37,-83.52"/>
</g>
<!-- Node15 -->
<g id="node15" class="node">
<title>Node15</title>
<g id="a_node15"><a xlink:href="../../d5/d18/dialogpatternproperties_8cpp.html" target="_top" xlink:title=" ">
<polygon fill="white" stroke="black" points="942.5,-0.5 942.5,-30.5 1097.5,-30.5 1097.5,-0.5 942.5,-0.5"/>
<text text-anchor="start" x="950.5" y="-18.5" font-family="Helvetica,sans-Serif" font-size="10.00">src/app/seamly2d/dialogs</text>
<text text-anchor="middle" x="1020" y="-7.5" font-family="Helvetica,sans-Serif" font-size="10.00">/dialogpatternproperties.cpp</text>
</a>
</g>
</g>
<!-- Node4&#45;&gt;Node15 -->
<g id="edge14" class="edge">
<title>Node4&#45;&gt;Node15</title>
<path fill="none" stroke="midnightblue" d="M1831.09,-79.39C1689.82,-74.8 1371.87,-61.73 1106,-31 1103.29,-30.69 1100.54,-30.35 1097.76,-29.98"/>
<polygon fill="midnightblue" stroke="midnightblue" points="1831.25,-82.9 1841.36,-79.72 1831.48,-75.91 1831.25,-82.9"/>
</g>
<!-- Node16 -->
<g id="node16" class="node">
<title>Node16</title>
<g id="a_node16"><a xlink:href="../../d5/dc5/dialogpreferences_8cpp.html" target="_top" xlink:title=" ">
<polygon fill="white" stroke="black" points="1115.5,-0.5 1115.5,-30.5 1256.5,-30.5 1256.5,-0.5 1115.5,-0.5"/>
<text text-anchor="start" x="1123.5" y="-18.5" font-family="Helvetica,sans-Serif" font-size="10.00">src/app/seamly2d/dialogs</text>
<text text-anchor="middle" x="1186" y="-7.5" font-family="Helvetica,sans-Serif" font-size="10.00">/dialogpreferences.cpp</text>
</a>
</g>
</g>
<!-- Node4&#45;&gt;Node16 -->
<g id="edge15" class="edge">
<title>Node4&#45;&gt;Node16</title>
<path fill="none" stroke="midnightblue" d="M1831.06,-78.14C1711.63,-72.15 1469.03,-57.7 1265,-31 1262.23,-30.64 1259.42,-30.24 1256.58,-29.83"/>
<polygon fill="midnightblue" stroke="midnightblue" points="1831.03,-81.64 1841.19,-78.64 1831.37,-74.65 1831.03,-81.64"/>
</g>
<!-- Node17 -->
<g id="node17" class="node">
<title>Node17</title>
<g id="a_node17"><a xlink:href="../../d6/d89/dialoglayoutprogress_8cpp.html" target="_top" xlink:title=" ">
<polygon fill="white" stroke="black" points="1274.5,-0.5 1274.5,-30.5 1417.5,-30.5 1417.5,-0.5 1274.5,-0.5"/>
<text text-anchor="start" x="1282.5" y="-18.5" font-family="Helvetica,sans-Serif" font-size="10.00">src/app/seamly2d/dialogs</text>
<text text-anchor="middle" x="1346" y="-7.5" font-family="Helvetica,sans-Serif" font-size="10.00">/dialoglayoutprogress.cpp</text>
</a>
</g>
</g>
<!-- Node4&#45;&gt;Node17 -->
<g id="edge16" class="edge">
<title>Node4&#45;&gt;Node17</title>
<path fill="none" stroke="midnightblue" d="M1831.28,-75.44C1737.04,-67.3 1568.96,-51.46 1426,-31 1423.35,-30.62 1420.64,-30.22 1417.92,-29.8"/>
<polygon fill="midnightblue" stroke="midnightblue" points="1831.02,-78.93 1841.28,-76.3 1831.62,-71.96 1831.02,-78.93"/>
</g>
<!-- Node18 -->
<g id="node18" class="node">
<title>Node18</title>
<g id="a_node18"><a xlink:href="../../dd/d54/export__layout__dialog_8cpp.html" target="_top" xlink:title=" ">
<polygon fill="white" stroke="black" points="1435.5,-0.5 1435.5,-30.5 1578.5,-30.5 1578.5,-0.5 1435.5,-0.5"/>
<text text-anchor="start" x="1443.5" y="-18.5" font-family="Helvetica,sans-Serif" font-size="10.00">src/app/seamly2d/dialogs</text>
<text text-anchor="middle" x="1507" y="-7.5" font-family="Helvetica,sans-Serif" font-size="10.00">/export_layout_dialog.cpp</text>
</a>
</g>
</g>
<!-- Node4&#45;&gt;Node18 -->
<g id="edge17" class="edge">
<title>Node4&#45;&gt;Node18</title>
<path fill="none" stroke="midnightblue" d="M1831.21,-70.25C1766.71,-60.3 1670.57,-45.21 1587,-31 1584.22,-30.53 1581.38,-30.04 1578.52,-29.54"/>
<polygon fill="midnightblue" stroke="midnightblue" points="1830.86,-73.74 1841.28,-71.8 1831.93,-66.82 1830.86,-73.74"/>
</g>
<!-- Node4&#45;&gt;Node19 -->
<g id="edge18" class="edge">
<title>Node4&#45;&gt;Node19</title>
<path fill="none" stroke="midnightblue" d="M1979.33,-80.97C2281.57,-78.57 3419.17,-67.26 3777,-31 3780.02,-30.69 3783.1,-30.34 3786.2,-29.95"/>
<polygon fill="midnightblue" stroke="midnightblue" points="1978.91,-77.47 1968.93,-81.05 1978.96,-84.47 1978.91,-77.47"/>
</g>
<!-- Node20 -->
<g id="node20" class="node">
<title>Node20</title>
<g id="a_node20"><a xlink:href="../../db/d5c/groups__widget_8cpp.html" target="_top" xlink:title=" ">
<polygon fill="white" stroke="black" points="1596.5,-0.5 1596.5,-30.5 1737.5,-30.5 1737.5,-0.5 1596.5,-0.5"/>
<text text-anchor="start" x="1604.5" y="-18.5" font-family="Helvetica,sans-Serif" font-size="10.00">src/app/seamly2d/dialogs</text>
<text text-anchor="middle" x="1667" y="-7.5" font-family="Helvetica,sans-Serif" font-size="10.00">/groups_widget.cpp</text>
</a>
</g>
</g>
<!-- Node4&#45;&gt;Node20 -->
<g id="edge19" class="edge">
<title>Node4&#45;&gt;Node20</title>
<path fill="none" stroke="midnightblue" d="M1843.54,-64.71C1804.81,-54.14 1755.37,-40.63 1718.67,-30.61"/>
<polygon fill="midnightblue" stroke="midnightblue" points="1843.08,-68.22 1853.65,-67.48 1844.93,-61.46 1843.08,-68.22"/>
</g>
<!-- Node21 -->
<g id="node21" class="node">
<title>Node21</title>
<g id="a_node21"><a xlink:href="../../d2/df4/show__info__dialog_8cpp.html" target="_top" xlink:title=" ">
<polygon fill="white" stroke="black" points="1755.5,-0.5 1755.5,-30.5 1896.5,-30.5 1896.5,-0.5 1755.5,-0.5"/>
<text text-anchor="start" x="1763.5" y="-18.5" font-family="Helvetica,sans-Serif" font-size="10.00">src/app/seamly2d/dialogs</text>
<text text-anchor="middle" x="1826" y="-7.5" font-family="Helvetica,sans-Serif" font-size="10.00">/show_info_dialog.cpp</text>
</a>
</g>
</g>
<!-- Node4&#45;&gt;Node21 -->
<g id="edge20" class="edge">
<title>Node4&#45;&gt;Node21</title>
<path fill="none" stroke="midnightblue" d="M1879.94,-60.88C1867.94,-51.01 1853.87,-39.43 1843.11,-30.58"/>
<polygon fill="midnightblue" stroke="midnightblue" points="1877.91,-63.75 1887.86,-67.4 1882.36,-58.34 1877.91,-63.75"/>
</g>
<!-- Node22 -->
<g id="node22" class="node">
<title>Node22</title>
<g id="a_node22"><a xlink:href="../../dd/d84/shortcuts__dialog_8cpp.html" target="_top" xlink:title=" ">
<polygon fill="white" stroke="black" points="1914.5,-0.5 1914.5,-30.5 2055.5,-30.5 2055.5,-0.5 1914.5,-0.5"/>
<text text-anchor="start" x="1922.5" y="-18.5" font-family="Helvetica,sans-Serif" font-size="10.00">src/app/seamly2d/dialogs</text>
<text text-anchor="middle" x="1985" y="-7.5" font-family="Helvetica,sans-Serif" font-size="10.00">/shortcuts_dialog.cpp</text>
</a>
</g>
</g>
<!-- Node4&#45;&gt;Node22 -->
<g id="edge21" class="edge">
<title>Node4&#45;&gt;Node22</title>
<path fill="none" stroke="midnightblue" d="M1930.37,-60.88C1942.53,-51.01 1956.78,-39.43 1967.68,-30.58"/>
<polygon fill="midnightblue" stroke="midnightblue" points="1927.91,-58.37 1922.36,-67.4 1932.33,-63.81 1927.91,-58.37"/>
</g>
<!-- Node23 -->
<g id="node23" class="node">
<title>Node23</title>
<g id="a_node23"><a xlink:href="../../df/d69/welcome__dialog_8cpp.html" target="_top" xlink:title=" ">
<polygon fill="white" stroke="black" points="2073.5,-0.5 2073.5,-30.5 2214.5,-30.5 2214.5,-0.5 2073.5,-0.5"/>
<text text-anchor="start" x="2081.5" y="-18.5" font-family="Helvetica,sans-Serif" font-size="10.00">src/app/seamly2d/dialogs</text>
<text text-anchor="middle" x="2144" y="-7.5" font-family="Helvetica,sans-Serif" font-size="10.00">/welcome_dialog.cpp</text>
</a>
</g>
</g>
<!-- Node4&#45;&gt;Node23 -->
<g id="edge22" class="edge">
<title>Node4&#45;&gt;Node23</title>
<path fill="none" stroke="midnightblue" d="M1966.22,-64.85C2005.19,-54.25 2055.1,-40.68 2092.12,-30.61"/>
<polygon fill="midnightblue" stroke="midnightblue" points="1965.3,-61.47 1956.57,-67.48 1967.13,-68.23 1965.3,-61.47"/>
</g>
<!-- Node24 -->
<g id="node24" class="node">
<title>Node24</title>
<g id="a_node24"><a xlink:href="../../dc/d14/app_2seamly2d_2main_8cpp.html" target="_top" xlink:title=" ">
<polygon fill="white" stroke="black" points="351.5,-6 351.5,-25 502.5,-25 502.5,-6 351.5,-6"/>
<text text-anchor="middle" x="427" y="-13" font-family="Helvetica,sans-Serif" font-size="10.00">src/app/seamly2d/main.cpp</text>
</a>
</g>
</g>
<!-- Node4&#45;&gt;Node24 -->
<g id="edge23" class="edge">
<title>Node4&#45;&gt;Node24</title>
<path fill="none" stroke="midnightblue" d="M1831.33,-80.14C1581.96,-75.34 770.71,-58 511,-31 497.61,-29.61 483.12,-27.37 470.01,-25.07"/>
<polygon fill="midnightblue" stroke="midnightblue" points="1831.31,-83.64 1841.37,-80.34 1831.44,-76.64 1831.31,-83.64"/>
</g>
<!-- Node4&#45;&gt;Node25 -->
<g id="edge24" class="edge">
<title>Node4&#45;&gt;Node25</title>
<path fill="none" stroke="midnightblue" d="M1978.9,-80.62C2296.61,-76.71 3548.11,-59.74 3941,-31 3960.1,-29.6 3980.84,-27.34 3999.57,-25.01"/>
<polygon fill="midnightblue" stroke="midnightblue" points="1978.84,-77.12 1968.88,-80.75 1978.92,-84.12 1978.84,-77.12"/>
</g>
<!-- Node26 -->
<g id="node26" class="node">
<title>Node26</title>
<g id="a_node26"><a xlink:href="../../d3/d49/vpattern_8cpp.html" target="_top" xlink:title=" ">
<polygon fill="white" stroke="black" points="2232.5,-0.5 2232.5,-30.5 2357.5,-30.5 2357.5,-0.5 2232.5,-0.5"/>
<text text-anchor="start" x="2240.5" y="-18.5" font-family="Helvetica,sans-Serif" font-size="10.00">src/app/seamly2d/xml</text>
<text text-anchor="middle" x="2295" y="-7.5" font-family="Helvetica,sans-Serif" font-size="10.00">/vpattern.cpp</text>
</a>
</g>
</g>
<!-- Node4&#45;&gt;Node26 -->
<g id="edge25" class="edge">
<title>Node4&#45;&gt;Node26</title>
<path fill="none" stroke="midnightblue" d="M1978.86,-70.65C2043.41,-60.96 2139.58,-46.02 2223,-31 2226.01,-30.46 2229.09,-29.89 2232.2,-29.31"/>
<polygon fill="midnightblue" stroke="midnightblue" points="1978.15,-67.22 1968.78,-72.16 1979.19,-74.14 1978.15,-67.22"/>
</g>
<!-- Node27 -->
<g id="node27" class="node">
<title>Node27</title>
<g id="a_node27"><a xlink:href="../../d8/dd9/mainwindow_8cpp.html" target="_top" xlink:title=" ">
<polygon fill="white" stroke="black" points="0,-6 0,-25 188,-25 188,-6 0,-6"/>
<text text-anchor="middle" x="94" y="-13" font-family="Helvetica,sans-Serif" font-size="10.00">src/app/seamly2d/mainwindow.cpp</text>
</a>
</g>
</g>
<!-- Node4&#45;&gt;Node27 -->
<g id="edge26" class="edge">
<title>Node4&#45;&gt;Node27</title>
<path fill="none" stroke="midnightblue" d="M1831.21,-79.8C1524.79,-72.67 361.04,-44.93 197,-31 180.54,-29.6 162.68,-27.35 146.54,-25.04"/>
<polygon fill="midnightblue" stroke="midnightblue" points="1831.24,-83.3 1841.32,-80.03 1831.4,-76.3 1831.24,-83.3"/>
</g>
<!-- Node28&#45;&gt;Node5 -->
<g id="edge29" class="edge">
<title>Node28&#45;&gt;Node5</title>
<path fill="none" stroke="midnightblue" d="M1059.7,-71.53C1047.56,-69.81 1034.9,-68.19 1023,-67 721.42,-36.79 642.7,-69.02 342,-31 339.22,-30.65 336.38,-30.25 333.52,-29.82"/>
<polygon fill="midnightblue" stroke="midnightblue" points="1059.34,-75.01 1069.74,-72.99 1060.35,-68.08 1059.34,-75.01"/>
</g>
<!-- Node28&#45;&gt;Node24 -->
<g id="edge30" class="edge">
<title>Node28&#45;&gt;Node24</title>
<path fill="none" stroke="midnightblue" d="M1058.3,-71.49C1046.59,-69.83 1034.44,-68.25 1023,-67 796.23,-42.29 737.46,-58.44 511,-31 498.07,-29.43 484.11,-27.23 471.34,-25.01"/>
<polygon fill="midnightblue" stroke="midnightblue" points="1058.06,-74.99 1068.46,-72.97 1059.06,-68.07 1058.06,-74.99"/>
</g>
<!-- Node28&#45;&gt;Node27 -->
<g id="edge31" class="edge">
<title>Node28&#45;&gt;Node27</title>
<path fill="none" stroke="midnightblue" d="M1060.12,-71.5C1047.86,-69.76 1035.04,-68.15 1023,-67 657.21,-32.06 562.92,-64.65 197,-31 180.82,-29.51 163.28,-27.28 147.34,-25.01"/>
<polygon fill="midnightblue" stroke="midnightblue" points="1059.86,-74.99 1070.26,-72.97 1060.87,-68.07 1059.86,-74.99"/>
</g>
</g>
</svg>
        <g id="navigator" transform="translate(0 0)" fill="#404254">
                <rect fill="#f2f5e9" fill-opacity="0.5" stroke="#606060" stroke-width=".5" x="0" y="0" width="60" height="60"/>
                <use id="zoomplus" xlink:href="#zoomPlus" x="17" y="9" onmousedown="handleZoom(evt,'in')"/>
                <use id="zoomminus" xlink:href="#zoomMin" x="42" y="9" onmousedown="handleZoom(evt,'out')"/>
                <use id="reset" xlink:href="#resetDef" x="30" y="36" onmousedown="handleReset()"/>
                <g id="arrowUp" xlink:href="#dirArrow" transform="translate(30 24)" onmousedown="handlePan(0,-1)">
                  <use xlink:href="#rim" fill="#404040">
                        <set attributeName="fill" to="#808080" begin="arrowUp.mouseover" end="arrowUp.mouseout"/>
                  </use>
                  <path fill="none" stroke="white" stroke-width="1.5" d="M0,-3.0v7 M-2.5,-0.5L0,-3.0L2.5,-0.5"/>
                </g>
                <g id="arrowRight" xlink:href="#dirArrow" transform="rotate(90) translate(36 -43)" onmousedown="handlePan(1,0)">
                  <use xlink:href="#rim" fill="#404040">
                        <set attributeName="fill" to="#808080" begin="arrowRight.mouseover" end="arrowRight.mouseout"/>
                  </use>
                  <path fill="none" stroke="white" stroke-width="1.5" d="M0,-3.0v7 M-2.5,-0.5L0,-3.0L2.5,-0.5"/>
                </g>
                <g id="arrowDown" xlink:href="#dirArrow" transform="rotate(180) translate(-30 -48)" onmousedown="handlePan(0,1)">
                  <use xlink:href="#rim" fill="#404040">
                        <set attributeName="fill" to="#808080" begin="arrowDown.mouseover" end="arrowDown.mouseout"/>
                  </use>
                  <path fill="none" stroke="white" stroke-width="1.5" d="M0,-3.0v7 M-2.5,-0.5L0,-3.0L2.5,-0.5"/>
                </g>
                <g id="arrowLeft" xlink:href="#dirArrow" transform="rotate(270) translate(-36 17)" onmousedown="handlePan(-1,0)">
                  <use xlink:href="#rim" fill="#404040">
                        <set attributeName="fill" to="#808080" begin="arrowLeft.mouseover" end="arrowLeft.mouseout"/>
                  </use>
                  <path fill="none" stroke="white" stroke-width="1.5" d="M0,-3.0v7 M-2.5,-0.5L0,-3.0L2.5,-0.5"/>
                </g>
        </g>
        <svg viewBox="0 0 15 15" width="100%" height="30px" preserveAspectRatio="xMaxYMin meet">
         <g id="arrow_out" transform="scale(0.3 0.3)">
          <a xlink:href="layoutsettings__dialog_8h__dep__incl_org.svg" target="_base">
           <rect id="button" ry="5" rx="5" y="6" x="6" height="38" width="38"
                fill="#f2f5e9" fill-opacity="0.5" stroke="#606060" stroke-width="1.0"/>
           <path id="arrow"
             d="M 11.500037,31.436501 C 11.940474,20.09759 22.043105,11.32322 32.158766,21.979434 L 37.068811,17.246167 C 37.068811,17.246167 37.088388,32 37.088388,32 L 22.160133,31.978069 C 22.160133,31.978069 26.997745,27.140456 26.997745,27.140456 C 18.528582,18.264221 13.291696,25.230495 11.500037,31.436501 z"
             style="fill:#404040;"/>
          </a>
         </g>
        </svg>
</svg>
