<?xml version="1.0" encoding="UTF-8" standalone="no"?>
<!DOCTYPE svg PUBLIC "-//W3C//DTD SVG 1.1//EN"
 "http://www.w3.org/Graphics/SVG/1.1/DTD/svg11.dtd">
<!-- Generated by graphviz version 2.43.0 (0)
 -->
<!-- Title: src/app/seamly2d/core/application_2d.h Pages: 1 -->
<svg width="4179pt" height="106pt"
 viewBox="0.00 0.00 4179.00 106.00" xmlns="http://www.w3.org/2000/svg" xmlns:xlink="http://www.w3.org/1999/xlink">
<g id="graph0" class="graph" transform="scale(1 1) rotate(0) translate(4 102)">
<title>src/app/seamly2d/core/application_2d.h</title>
<polygon fill="white" stroke="transparent" points="-4,4 -4,-102 4175,-102 4175,4 -4,4"/>
<!-- Node1 -->
<g id="node1" class="node">
<title>Node1</title>
<g id="a_node1"><a xlink:title=" ">
<polygon fill="#bfbfbf" stroke="black" points="2153,-67.5 2153,-97.5 2280,-97.5 2280,-67.5 2153,-67.5"/>
<text text-anchor="start" x="2161" y="-85.5" font-family="Helvetica,sans-Serif" font-size="10.00">src/app/seamly2d/core</text>
<text text-anchor="middle" x="2216.5" y="-74.5" font-family="Helvetica,sans-Serif" font-size="10.00">/application_2d.h</text>
</a>
</g>
</g>
<!-- Node2 -->
<g id="node2" class="node">
<title>Node2</title>
<g id="a_node2"><a xlink:href="../../df/d3e/application__2d_8cpp.html" target="_top" xlink:title=" ">
<polygon fill="white" stroke="black" points="0,-0.5 0,-30.5 127,-30.5 127,-0.5 0,-0.5"/>
<text text-anchor="start" x="8" y="-18.5" font-family="Helvetica,sans-Serif" font-size="10.00">src/app/seamly2d/core</text>
<text text-anchor="middle" x="63.5" y="-7.5" font-family="Helvetica,sans-Serif" font-size="10.00">/application_2d.cpp</text>
</a>
</g>
</g>
<!-- Node1&#45;&gt;Node2 -->
<g id="edge1" class="edge">
<title>Node1&#45;&gt;Node2</title>
<path fill="none" stroke="midnightblue" d="M2142.82,-81.41C1821.04,-80.75 537.29,-75.34 136.5,-31 133.42,-30.66 130.27,-30.25 127.1,-29.8"/>
<polygon fill="midnightblue" stroke="midnightblue" points="2142.95,-84.91 2152.96,-81.43 2142.97,-77.91 2142.95,-84.91"/>
</g>
<!-- Node3 -->
<g id="node3" class="node">
<title>Node3</title>
<g id="a_node3"><a xlink:href="../../dd/db4/abstractlayout__dialog_8cpp.html" target="_top" xlink:title=" ">
<polygon fill="white" stroke="black" points="145.5,-0.5 145.5,-30.5 291.5,-30.5 291.5,-0.5 145.5,-0.5"/>
<text text-anchor="start" x="153.5" y="-18.5" font-family="Helvetica,sans-Serif" font-size="10.00">src/app/seamly2d/dialogs</text>
<text text-anchor="middle" x="218.5" y="-7.5" font-family="Helvetica,sans-Serif" font-size="10.00">/abstractlayout_dialog.cpp</text>
</a>
</g>
</g>
<!-- Node1&#45;&gt;Node3 -->
<g id="edge2" class="edge">
<title>Node1&#45;&gt;Node3</title>
<path fill="none" stroke="midnightblue" d="M2142.43,-81.02C1836.14,-78.81 667.54,-68.08 300.5,-31 297.62,-30.71 294.7,-30.38 291.74,-30.01"/>
<polygon fill="midnightblue" stroke="midnightblue" points="2142.5,-84.52 2152.53,-81.09 2142.55,-77.52 2142.5,-84.52"/>
</g>
<!-- Node4 -->
<g id="node4" class="node">
<title>Node4</title>
<g id="a_node4"><a xlink:href="../../d9/d7f/about2d__dialog_8cpp.html" target="_top" xlink:title=" ">
<polygon fill="white" stroke="black" points="310,-0.5 310,-30.5 451,-30.5 451,-0.5 310,-0.5"/>
<text text-anchor="start" x="318" y="-18.5" font-family="Helvetica,sans-Serif" font-size="10.00">src/app/seamly2d/dialogs</text>
<text text-anchor="middle" x="380.5" y="-7.5" font-family="Helvetica,sans-Serif" font-size="10.00">/about2d_dialog.cpp</text>
</a>
</g>
</g>
<!-- Node1&#45;&gt;Node4 -->
<g id="edge3" class="edge">
<title>Node1&#45;&gt;Node4</title>
<path fill="none" stroke="midnightblue" d="M2142.45,-80.88C1852.46,-78.22 793.56,-66.25 459.5,-31 456.73,-30.71 453.9,-30.37 451.06,-30"/>
<polygon fill="midnightblue" stroke="midnightblue" points="2142.82,-84.38 2152.85,-80.97 2142.88,-77.38 2142.82,-84.38"/>
</g>
<!-- Node5 -->
<g id="node5" class="node">
<title>Node5</title>
<g id="a_node5"><a xlink:href="../../d2/d2d/preferencesconfigurationpage_8cpp.html" target="_top" xlink:title=" ">
<polygon fill="white" stroke="black" points="469,-0.5 469,-30.5 716,-30.5 716,-0.5 469,-0.5"/>
<text text-anchor="start" x="477" y="-18.5" font-family="Helvetica,sans-Serif" font-size="10.00">src/app/seamly2d/dialogs</text>
<text text-anchor="middle" x="592.5" y="-7.5" font-family="Helvetica,sans-Serif" font-size="10.00">/configpages/preferencesconfigurationpage.cpp</text>
</a>
</g>
</g>
<!-- Node1&#45;&gt;Node5 -->
<g id="edge4" class="edge">
<title>Node1&#45;&gt;Node5</title>
<path fill="none" stroke="midnightblue" d="M2142.77,-80.98C1925.38,-79 1268.12,-70 724.5,-31 721.74,-30.8 718.95,-30.59 716.14,-30.37"/>
<polygon fill="midnightblue" stroke="midnightblue" points="2142.76,-84.48 2152.79,-81.06 2142.82,-77.48 2142.76,-84.48"/>
</g>
<!-- Node6 -->
<g id="node6" class="node">
<title>Node6</title>
<g id="a_node6"><a xlink:href="../../d7/dfa/calculator__dialog_8cpp.html" target="_top" xlink:title=" ">
<polygon fill="white" stroke="black" points="734,-0.5 734,-30.5 875,-30.5 875,-0.5 734,-0.5"/>
<text text-anchor="start" x="742" y="-18.5" font-family="Helvetica,sans-Serif" font-size="10.00">src/app/seamly2d/dialogs</text>
<text text-anchor="middle" x="804.5" y="-7.5" font-family="Helvetica,sans-Serif" font-size="10.00">/calculator_dialog.cpp</text>
</a>
</g>
</g>
<!-- Node1&#45;&gt;Node6 -->
<g id="edge5" class="edge">
<title>Node1&#45;&gt;Node6</title>
<path fill="none" stroke="midnightblue" d="M2142.85,-80.08C1900.83,-75.2 1131.42,-57.92 884.5,-31 881.41,-30.66 878.27,-30.28 875.09,-29.85"/>
<polygon fill="midnightblue" stroke="midnightblue" points="2142.88,-83.58 2152.95,-80.28 2143.02,-76.58 2142.88,-83.58"/>
</g>
<!-- Node7 -->
<g id="node7" class="node">
<title>Node7</title>
<g id="a_node7"><a xlink:href="../../d9/d70/preferencesgraphicsviewpage_8cpp.html" target="_top" xlink:title=" ">
<polygon fill="white" stroke="black" points="893.5,-0.5 893.5,-30.5 1141.5,-30.5 1141.5,-0.5 893.5,-0.5"/>
<text text-anchor="start" x="901.5" y="-18.5" font-family="Helvetica,sans-Serif" font-size="10.00">src/app/seamly2d/dialogs</text>
<text text-anchor="middle" x="1017.5" y="-7.5" font-family="Helvetica,sans-Serif" font-size="10.00">/configpages/preferencesgraphicsviewpage.cpp</text>
</a>
</g>
</g>
<!-- Node1&#45;&gt;Node7 -->
<g id="edge6" class="edge">
<title>Node1&#45;&gt;Node7</title>
<path fill="none" stroke="midnightblue" d="M2142.7,-79.56C1969.35,-74.67 1522.67,-60.08 1150.5,-31 1147.61,-30.77 1144.68,-30.54 1141.72,-30.29"/>
<polygon fill="midnightblue" stroke="midnightblue" points="2142.64,-83.06 2152.73,-79.84 2142.84,-76.06 2142.64,-83.06"/>
</g>
<!-- Node8 -->
<g id="node8" class="node">
<title>Node8</title>
<g id="a_node8"><a xlink:href="../../dc/d20/preferencespathpage_8cpp.html" target="_top" xlink:title=" ">
<polygon fill="white" stroke="black" points="1160,-0.5 1160,-30.5 1365,-30.5 1365,-0.5 1160,-0.5"/>
<text text-anchor="start" x="1168" y="-18.5" font-family="Helvetica,sans-Serif" font-size="10.00">src/app/seamly2d/dialogs</text>
<text text-anchor="middle" x="1262.5" y="-7.5" font-family="Helvetica,sans-Serif" font-size="10.00">/configpages/preferencespathpage.cpp</text>
</a>
</g>
</g>
<!-- Node1&#45;&gt;Node8 -->
<g id="edge7" class="edge">
<title>Node1&#45;&gt;Node8</title>
<path fill="none" stroke="midnightblue" d="M2142.7,-78.82C1995.94,-73.1 1657.15,-57.99 1373.5,-31 1370.79,-30.74 1368.05,-30.47 1365.28,-30.18"/>
<polygon fill="midnightblue" stroke="midnightblue" points="2142.8,-82.33 2152.93,-79.21 2143.07,-75.33 2142.8,-82.33"/>
</g>
<!-- Node9 -->
<g id="node9" class="node">
<title>Node9</title>
<g id="a_node9"><a xlink:href="../../dd/dc2/decimalchart__dialog_8cpp.html" target="_top" xlink:title=" ">
<polygon fill="white" stroke="black" points="1383,-0.5 1383,-30.5 1524,-30.5 1524,-0.5 1383,-0.5"/>
<text text-anchor="start" x="1391" y="-18.5" font-family="Helvetica,sans-Serif" font-size="10.00">src/app/seamly2d/dialogs</text>
<text text-anchor="middle" x="1453.5" y="-7.5" font-family="Helvetica,sans-Serif" font-size="10.00">/decimalchart_dialog.cpp</text>
</a>
</g>
</g>
<!-- Node1&#45;&gt;Node9 -->
<g id="edge8" class="edge">
<title>Node1&#45;&gt;Node9</title>
<path fill="none" stroke="midnightblue" d="M2142.45,-78.59C2016.82,-73.07 1754.06,-59.06 1533.5,-31 1530.42,-30.61 1527.28,-30.18 1524.11,-29.71"/>
<polygon fill="midnightblue" stroke="midnightblue" points="2142.57,-82.1 2152.72,-79.03 2142.88,-75.1 2142.57,-82.1"/>
</g>
<!-- Node10 -->
<g id="node10" class="node">
<title>Node10</title>
<g id="a_node10"><a xlink:href="../../dc/d63/preferencespatternpage_8cpp.html" target="_top" xlink:title=" ">
<polygon fill="white" stroke="black" points="1542.5,-0.5 1542.5,-30.5 1760.5,-30.5 1760.5,-0.5 1542.5,-0.5"/>
<text text-anchor="start" x="1550.5" y="-18.5" font-family="Helvetica,sans-Serif" font-size="10.00">src/app/seamly2d/dialogs</text>
<text text-anchor="middle" x="1651.5" y="-7.5" font-family="Helvetica,sans-Serif" font-size="10.00">/configpages/preferencespatternpage.cpp</text>
</a>
</g>
</g>
<!-- Node1&#45;&gt;Node10 -->
<g id="edge9" class="edge">
<title>Node1&#45;&gt;Node10</title>
<path fill="none" stroke="midnightblue" d="M2142.86,-73.4C2054.24,-63.61 1900.94,-46.5 1769.5,-31 1766.63,-30.66 1763.72,-30.32 1760.79,-29.97"/>
<polygon fill="midnightblue" stroke="midnightblue" points="2142.49,-76.88 2152.82,-74.5 2143.26,-69.93 2142.49,-76.88"/>
</g>
<!-- Node11 -->
<g id="node11" class="node">
<title>Node11</title>
<g id="a_node11"><a xlink:href="../../d6/d89/dialoglayoutprogress_8cpp.html" target="_top" xlink:title=" ">
<polygon fill="white" stroke="black" points="1779,-0.5 1779,-30.5 1922,-30.5 1922,-0.5 1779,-0.5"/>
<text text-anchor="start" x="1787" y="-18.5" font-family="Helvetica,sans-Serif" font-size="10.00">src/app/seamly2d/dialogs</text>
<text text-anchor="middle" x="1850.5" y="-7.5" font-family="Helvetica,sans-Serif" font-size="10.00">/dialoglayoutprogress.cpp</text>
</a>
</g>
</g>
<!-- Node1&#45;&gt;Node11 -->
<g id="edge10" class="edge">
<title>Node1&#45;&gt;Node11</title>
<path fill="none" stroke="midnightblue" d="M2142.73,-68.47C2085.19,-58.29 2003.25,-43.78 1931.5,-31 1928.41,-30.45 1925.25,-29.89 1922.05,-29.32"/>
<polygon fill="midnightblue" stroke="midnightblue" points="2142.37,-71.96 2152.82,-70.25 2143.59,-65.06 2142.37,-71.96"/>
</g>
<!-- Node12 -->
<g id="node12" class="node">
<title>Node12</title>
<g id="a_node12"><a xlink:href="../../d2/d00/vtooloptionspropertybrowser_8cpp.html" target="_top" xlink:title=" ">
<polygon fill="white" stroke="black" points="1940.5,-0.5 1940.5,-30.5 2120.5,-30.5 2120.5,-0.5 1940.5,-0.5"/>
<text text-anchor="start" x="1948.5" y="-18.5" font-family="Helvetica,sans-Serif" font-size="10.00">src/app/seamly2d/core</text>
<text text-anchor="middle" x="2030.5" y="-7.5" font-family="Helvetica,sans-Serif" font-size="10.00">/vtooloptionspropertybrowser.cpp</text>
</a>
</g>
</g>
<!-- Node1&#45;&gt;Node12 -->
<g id="edge11" class="edge">
<title>Node1&#45;&gt;Node12</title>
<path fill="none" stroke="midnightblue" d="M2166.69,-64.09C2136.66,-53.6 2098.91,-40.41 2070.78,-30.58"/>
<polygon fill="midnightblue" stroke="midnightblue" points="2165.55,-67.4 2176.14,-67.4 2167.86,-60.79 2165.55,-67.4"/>
</g>
<!-- Node13 -->
<g id="node13" class="node">
<title>Node13</title>
<g id="a_node13"><a xlink:href="../../d5/d18/dialogpatternproperties_8cpp.html" target="_top" xlink:title=" ">
<polygon fill="white" stroke="black" points="2139,-0.5 2139,-30.5 2294,-30.5 2294,-0.5 2139,-0.5"/>
<text text-anchor="start" x="2147" y="-18.5" font-family="Helvetica,sans-Serif" font-size="10.00">src/app/seamly2d/dialogs</text>
<text text-anchor="middle" x="2216.5" y="-7.5" font-family="Helvetica,sans-Serif" font-size="10.00">/dialogpatternproperties.cpp</text>
</a>
</g>
</g>
<!-- Node1&#45;&gt;Node13 -->
<g id="edge12" class="edge">
<title>Node1&#45;&gt;Node13</title>
<path fill="none" stroke="midnightblue" d="M2216.5,-57.11C2216.5,-48.15 2216.5,-38.32 2216.5,-30.58"/>
<polygon fill="midnightblue" stroke="midnightblue" points="2213,-57.4 2216.5,-67.4 2220,-57.4 2213,-57.4"/>
</g>
<!-- Node14 -->
<g id="node14" class="node">
<title>Node14</title>
<g id="a_node14"><a xlink:href="../../d5/dc5/dialogpreferences_8cpp.html" target="_top" xlink:title=" ">
<polygon fill="white" stroke="black" points="2312,-0.5 2312,-30.5 2453,-30.5 2453,-0.5 2312,-0.5"/>
<text text-anchor="start" x="2320" y="-18.5" font-family="Helvetica,sans-Serif" font-size="10.00">src/app/seamly2d/dialogs</text>
<text text-anchor="middle" x="2382.5" y="-7.5" font-family="Helvetica,sans-Serif" font-size="10.00">/dialogpreferences.cpp</text>
</a>
</g>
</g>
<!-- Node1&#45;&gt;Node14 -->
<g id="edge13" class="edge">
<title>Node1&#45;&gt;Node14</title>
<path fill="none" stroke="midnightblue" d="M2262.01,-63.68C2288.63,-53.26 2321.77,-40.28 2346.55,-30.58"/>
<polygon fill="midnightblue" stroke="midnightblue" points="2260.55,-60.49 2252.52,-67.4 2263.11,-67.01 2260.55,-60.49"/>
</g>
<!-- Node15 -->
<g id="node15" class="node">
<title>Node15</title>
<g id="a_node15"><a xlink:href="../../dd/d54/export__layout__dialog_8cpp.html" target="_top" xlink:title=" ">
<polygon fill="white" stroke="black" points="2471,-0.5 2471,-30.5 2614,-30.5 2614,-0.5 2471,-0.5"/>
<text text-anchor="start" x="2479" y="-18.5" font-family="Helvetica,sans-Serif" font-size="10.00">src/app/seamly2d/dialogs</text>
<text text-anchor="middle" x="2542.5" y="-7.5" font-family="Helvetica,sans-Serif" font-size="10.00">/export_layout_dialog.cpp</text>
</a>
</g>
</g>
<!-- Node1&#45;&gt;Node15 -->
<g id="edge14" class="edge">
<title>Node1&#45;&gt;Node15</title>
<path fill="none" stroke="midnightblue" d="M2290.08,-66.83C2344.62,-55.95 2418.51,-41.22 2472.25,-30.51"/>
<polygon fill="midnightblue" stroke="midnightblue" points="2289.25,-63.43 2280.13,-68.81 2290.62,-70.29 2289.25,-63.43"/>
</g>
<!-- Node16 -->
<g id="node16" class="node">
<title>Node16</title>
<g id="a_node16"><a xlink:href="../../d0/dfa/layoutsettings__dialog_8cpp.html" target="_top" xlink:title=" ">
<polygon fill="white" stroke="black" points="2632,-0.5 2632,-30.5 2777,-30.5 2777,-0.5 2632,-0.5"/>
<text text-anchor="start" x="2640" y="-18.5" font-family="Helvetica,sans-Serif" font-size="10.00">src/app/seamly2d/dialogs</text>
<text text-anchor="middle" x="2704.5" y="-7.5" font-family="Helvetica,sans-Serif" font-size="10.00">/layoutsettings_dialog.cpp</text>
</a>
</g>
</g>
<!-- Node1&#45;&gt;Node16 -->
<g id="edge15" class="edge">
<title>Node1&#45;&gt;Node16</title>
<path fill="none" stroke="midnightblue" d="M2290.27,-73.55C2371.93,-64.47 2507.38,-48.58 2623.5,-31 2626.18,-30.59 2628.92,-30.17 2631.67,-29.73"/>
<polygon fill="midnightblue" stroke="midnightblue" points="2289.65,-70.1 2280.09,-74.68 2290.42,-77.06 2289.65,-70.1"/>
</g>
<!-- Node17 -->
<g id="node17" class="node">
<title>Node17</title>
<g id="a_node17"><a xlink:href="../../db/d5c/groups__widget_8cpp.html" target="_top" xlink:title=" ">
<polygon fill="white" stroke="black" points="2795,-0.5 2795,-30.5 2936,-30.5 2936,-0.5 2795,-0.5"/>
<text text-anchor="start" x="2803" y="-18.5" font-family="Helvetica,sans-Serif" font-size="10.00">src/app/seamly2d/dialogs</text>
<text text-anchor="middle" x="2865.5" y="-7.5" font-family="Helvetica,sans-Serif" font-size="10.00">/groups_widget.cpp</text>
</a>
</g>
</g>
<!-- Node1&#45;&gt;Node17 -->
<g id="edge16" class="edge">
<title>Node1&#45;&gt;Node17</title>
<path fill="none" stroke="midnightblue" d="M2290.63,-77.15C2399.62,-70.24 2609.36,-55.05 2786.5,-31 2789.26,-30.62 2792.08,-30.22 2794.92,-29.79"/>
<polygon fill="midnightblue" stroke="midnightblue" points="2290.16,-73.67 2280.4,-77.79 2290.6,-80.65 2290.16,-73.67"/>
</g>
<!-- Node18 -->
<g id="node18" class="node">
<title>Node18</title>
<g id="a_node18"><a xlink:href="../../dd/d84/shortcuts__dialog_8cpp.html" target="_top" xlink:title=" ">
<polygon fill="white" stroke="black" points="2954,-0.5 2954,-30.5 3095,-30.5 3095,-0.5 2954,-0.5"/>
<text text-anchor="start" x="2962" y="-18.5" font-family="Helvetica,sans-Serif" font-size="10.00">src/app/seamly2d/dialogs</text>
<text text-anchor="middle" x="3024.5" y="-7.5" font-family="Helvetica,sans-Serif" font-size="10.00">/shortcuts_dialog.cpp</text>
</a>
</g>
</g>
<!-- Node1&#45;&gt;Node18 -->
<g id="edge17" class="edge">
<title>Node1&#45;&gt;Node18</title>
<path fill="none" stroke="midnightblue" d="M2290.5,-79.12C2422.51,-74.27 2707.14,-61.03 2945.5,-31 2948.27,-30.65 2951.08,-30.27 2953.93,-29.86"/>
<polygon fill="midnightblue" stroke="midnightblue" points="2289.98,-75.64 2280.12,-79.5 2290.24,-82.63 2289.98,-75.64"/>
</g>
<!-- Node19 -->
<g id="node19" class="node">
<title>Node19</title>
<g id="a_node19"><a xlink:href="../../d2/df4/show__info__dialog_8cpp.html" target="_top" xlink:title=" ">
<polygon fill="white" stroke="black" points="3113,-0.5 3113,-30.5 3254,-30.5 3254,-0.5 3113,-0.5"/>
<text text-anchor="start" x="3121" y="-18.5" font-family="Helvetica,sans-Serif" font-size="10.00">src/app/seamly2d/dialogs</text>
<text text-anchor="middle" x="3183.5" y="-7.5" font-family="Helvetica,sans-Serif" font-size="10.00">/show_info_dialog.cpp</text>
</a>
</g>
</g>
<!-- Node1&#45;&gt;Node19 -->
<g id="edge18" class="edge">
<title>Node1&#45;&gt;Node19</title>
<path fill="none" stroke="midnightblue" d="M2290.46,-80.41C2443.12,-77.47 2804,-66.98 3104.5,-31 3107.27,-30.67 3110.09,-30.3 3112.93,-29.9"/>
<polygon fill="midnightblue" stroke="midnightblue" points="2290.2,-76.91 2280.27,-80.6 2290.33,-83.91 2290.2,-76.91"/>
</g>
<!-- Node20 -->
<g id="node20" class="node">
<title>Node20</title>
<g id="a_node20"><a xlink:href="../../df/d69/welcome__dialog_8cpp.html" target="_top" xlink:title=" ">
<polygon fill="white" stroke="black" points="3272,-0.5 3272,-30.5 3413,-30.5 3413,-0.5 3272,-0.5"/>
<text text-anchor="start" x="3280" y="-18.5" font-family="Helvetica,sans-Serif" font-size="10.00">src/app/seamly2d/dialogs</text>
<text text-anchor="middle" x="3342.5" y="-7.5" font-family="Helvetica,sans-Serif" font-size="10.00">/welcome_dialog.cpp</text>
</a>
</g>
</g>
<!-- Node1&#45;&gt;Node20 -->
<g id="edge19" class="edge">
<title>Node1&#45;&gt;Node20</title>
<path fill="none" stroke="midnightblue" d="M2290.35,-81.31C2461.84,-80.15 2900.09,-72.93 3263.5,-31 3266.27,-30.68 3269.09,-30.32 3271.93,-29.93"/>
<polygon fill="midnightblue" stroke="midnightblue" points="2290.16,-77.82 2280.18,-81.38 2290.2,-84.81 2290.16,-77.82"/>
</g>
<!-- Node21 -->
<g id="node21" class="node">
<title>Node21</title>
<g id="a_node21"><a xlink:href="../../dc/d14/app_2seamly2d_2main_8cpp.html" target="_top" xlink:title=" ">
<polygon fill="white" stroke="black" points="3431,-6 3431,-25 3582,-25 3582,-6 3431,-6"/>
<text text-anchor="middle" x="3506.5" y="-13" font-family="Helvetica,sans-Serif" font-size="10.00">src/app/seamly2d/main.cpp</text>
</a>
</g>
</g>
<!-- Node1&#45;&gt;Node21 -->
<g id="edge20" class="edge">
<title>Node1&#45;&gt;Node21</title>
<path fill="none" stroke="midnightblue" d="M2290.22,-81.72C2479.06,-81.56 2995.38,-76.61 3422.5,-31 3435.89,-29.57 3450.38,-27.32 3463.48,-25.02"/>
<polygon fill="midnightblue" stroke="midnightblue" points="2290.13,-78.22 2280.13,-81.72 2290.13,-85.22 2290.13,-78.22"/>
</g>
<!-- Node22 -->
<g id="node22" class="node">
<title>Node22</title>
<g id="a_node22"><a xlink:href="../../d8/de8/mainwindowsnogui_8cpp.html" target="_top" xlink:title=" ">
<polygon fill="white" stroke="black" points="3600,-6 3600,-25 3821,-25 3821,-6 3600,-6"/>
<text text-anchor="middle" x="3710.5" y="-13" font-family="Helvetica,sans-Serif" font-size="10.00">src/app/seamly2d/mainwindowsnogui.cpp</text>
</a>
</g>
</g>
<!-- Node1&#45;&gt;Node22 -->
<g id="edge21" class="edge">
<title>Node1&#45;&gt;Node22</title>
<path fill="none" stroke="midnightblue" d="M2290.45,-80.98C2496.69,-79.06 3095.63,-70.25 3591.5,-31 3610.17,-29.52 3630.42,-27.29 3648.84,-25.02"/>
<polygon fill="midnightblue" stroke="midnightblue" points="2290.31,-77.48 2280.35,-81.07 2290.38,-84.48 2290.31,-77.48"/>
</g>
<!-- Node23 -->
<g id="node23" class="node">
<title>Node23</title>
<g id="a_node23"><a xlink:href="../../d8/dd9/mainwindow_8cpp.html" target="_top" xlink:title=" ">
<polygon fill="white" stroke="black" points="3839.5,-6 3839.5,-25 4027.5,-25 4027.5,-6 3839.5,-6"/>
<text text-anchor="middle" x="3933.5" y="-13" font-family="Helvetica,sans-Serif" font-size="10.00">src/app/seamly2d/mainwindow.cpp</text>
</a>
</g>
</g>
<!-- Node1&#45;&gt;Node23 -->
<g id="edge22" class="edge">
<title>Node1&#45;&gt;Node23</title>
<path fill="none" stroke="midnightblue" d="M2290.3,-82.04C2519.3,-83.09 3238.02,-81.82 3830.5,-31 3846.96,-29.59 3864.82,-27.33 3880.96,-25.02"/>
<polygon fill="midnightblue" stroke="midnightblue" points="2290.1,-78.54 2280.09,-81.99 2290.07,-85.54 2290.1,-78.54"/>
</g>
<!-- Node24 -->
<g id="node24" class="node">
<title>Node24</title>
<g id="a_node24"><a xlink:href="../../d3/d49/vpattern_8cpp.html" target="_top" xlink:title=" ">
<polygon fill="white" stroke="black" points="4046,-0.5 4046,-30.5 4171,-30.5 4171,-0.5 4046,-0.5"/>
<text text-anchor="start" x="4054" y="-18.5" font-family="Helvetica,sans-Serif" font-size="10.00">src/app/seamly2d/xml</text>
<text text-anchor="middle" x="4108.5" y="-7.5" font-family="Helvetica,sans-Serif" font-size="10.00">/vpattern.cpp</text>
</a>
</g>
</g>
<!-- Node1&#45;&gt;Node24 -->
<g id="edge23" class="edge">
<title>Node1&#45;&gt;Node24</title>
<path fill="none" stroke="midnightblue" d="M2290.27,-81.14C2586.43,-79.42 3689.64,-70.45 4036.5,-31 4039.54,-30.65 4042.64,-30.25 4045.77,-29.79"/>
<polygon fill="midnightblue" stroke="midnightblue" points="2290.06,-77.64 2280.08,-81.19 2290.1,-84.64 2290.06,-77.64"/>
</g>
</g>
</svg>
