<?xml version="1.0" encoding="UTF-8" standalone="no"?>
<!DOCTYPE svg PUBLIC "-//W3C//DTD SVG 1.1//EN"
 "http://www.w3.org/Graphics/SVG/1.1/DTD/svg11.dtd">
<!-- Generated by graphviz version 2.43.0 (0)
 -->
<!-- Title: src/libs/ifc/exception/vexceptionbadid.h Pages: 1 -->
<svg width="6446pt" height="318pt"
 viewBox="0.00 0.00 6446.00 318.00" xmlns="http://www.w3.org/2000/svg" xmlns:xlink="http://www.w3.org/1999/xlink">
<g id="graph0" class="graph" transform="scale(1 1) rotate(0) translate(4 314)">
<title>src/libs/ifc/exception/vexceptionbadid.h</title>
<polygon fill="white" stroke="transparent" points="-4,4 -4,-314 6442,-314 6442,4 -4,4"/>
<!-- Node1 -->
<g id="node1" class="node">
<title>Node1</title>
<g id="a_node1"><a xlink:title=" ">
<polygon fill="#bfbfbf" stroke="black" points="5069.5,-279.5 5069.5,-309.5 5186.5,-309.5 5186.5,-279.5 5069.5,-279.5"/>
<text text-anchor="start" x="5077.5" y="-297.5" font-family="Helvetica,sans-Serif" font-size="10.00">src/libs/ifc/exception</text>
<text text-anchor="middle" x="5128" y="-286.5" font-family="Helvetica,sans-Serif" font-size="10.00">/vexceptionbadid.h</text>
</a>
</g>
</g>
<!-- Node2 -->
<g id="node2" class="node">
<title>Node2</title>
<g id="a_node2"><a xlink:href="../../d5/d85/vexceptionbadid_8cpp.html" target="_top" xlink:title=" ">
<polygon fill="white" stroke="black" points="4894.5,-212.5 4894.5,-242.5 5015.5,-242.5 5015.5,-212.5 4894.5,-212.5"/>
<text text-anchor="start" x="4902.5" y="-230.5" font-family="Helvetica,sans-Serif" font-size="10.00">src/libs/ifc/exception</text>
<text text-anchor="middle" x="4955" y="-219.5" font-family="Helvetica,sans-Serif" font-size="10.00">/vexceptionbadid.cpp</text>
</a>
</g>
</g>
<!-- Node1&#45;&gt;Node2 -->
<g id="edge1" class="edge">
<title>Node1&#45;&gt;Node2</title>
<path fill="none" stroke="midnightblue" d="M5080.94,-275.82C5053.13,-265.37 5018.41,-252.32 4992.47,-242.58"/>
<polygon fill="midnightblue" stroke="midnightblue" points="5079.87,-279.16 5090.46,-279.4 5082.33,-272.6 5079.87,-279.16"/>
</g>
<!-- Node3 -->
<g id="node3" class="node">
<title>Node3</title>
<g id="a_node3"><a xlink:href="../../d7/d49/vdomdocument_8cpp.html" target="_top" xlink:title=" ">
<polygon fill="white" stroke="black" points="5034,-218 5034,-237 5222,-237 5222,-218 5034,-218"/>
<text text-anchor="middle" x="5128" y="-225" font-family="Helvetica,sans-Serif" font-size="10.00">src/libs/ifc/xml/vdomdocument.cpp</text>
</a>
</g>
</g>
<!-- Node1&#45;&gt;Node3 -->
<g id="edge2" class="edge">
<title>Node1&#45;&gt;Node3</title>
<path fill="none" stroke="midnightblue" d="M5128,-269.25C5128,-258.02 5128,-245.38 5128,-237.19"/>
<polygon fill="midnightblue" stroke="midnightblue" points="5124.5,-269.4 5128,-279.4 5131.5,-269.4 5124.5,-269.4"/>
</g>
<!-- Node4 -->
<g id="node4" class="node">
<title>Node4</title>
<g id="a_node4"><a xlink:href="../../d3/df7/vcontainer_8h.html" target="_top" xlink:title=" ">
<polygon fill="white" stroke="black" points="5240.5,-212.5 5240.5,-242.5 5347.5,-242.5 5347.5,-212.5 5240.5,-212.5"/>
<text text-anchor="start" x="5248.5" y="-230.5" font-family="Helvetica,sans-Serif" font-size="10.00">src/libs/vpatterndb</text>
<text text-anchor="middle" x="5294" y="-219.5" font-family="Helvetica,sans-Serif" font-size="10.00">/vcontainer.h</text>
</a>
</g>
</g>
<!-- Node1&#45;&gt;Node4 -->
<g id="edge3" class="edge">
<title>Node1&#45;&gt;Node4</title>
<path fill="none" stroke="midnightblue" d="M5173.51,-275.68C5200.13,-265.26 5233.27,-252.28 5258.05,-242.58"/>
<polygon fill="midnightblue" stroke="midnightblue" points="5172.05,-272.49 5164.02,-279.4 5174.61,-279.01 5172.05,-272.49"/>
</g>
<!-- Node5 -->
<g id="node5" class="node">
<title>Node5</title>
<g id="a_node5"><a xlink:href="../../d2/d47/image__dialog_8cpp.html" target="_top" xlink:title=" ">
<polygon fill="white" stroke="black" points="1321,-67.5 1321,-97.5 1433,-97.5 1433,-67.5 1321,-67.5"/>
<text text-anchor="start" x="1329" y="-85.5" font-family="Helvetica,sans-Serif" font-size="10.00">src/libs/tools/image</text>
<text text-anchor="middle" x="1377" y="-74.5" font-family="Helvetica,sans-Serif" font-size="10.00">_dialog.cpp</text>
</a>
</g>
</g>
<!-- Node4&#45;&gt;Node5 -->
<g id="edge4" class="edge">
<title>Node4&#45;&gt;Node5</title>
<path fill="none" stroke="midnightblue" d="M5230.03,-212.12C4517.61,-129.73 2770.69,-222.82 2074,-176 1791.62,-157.02 1720.89,-146.2 1442,-98 1439.15,-97.51 1436.24,-96.97 1433.3,-96.41"/>
<polygon fill="midnightblue" stroke="midnightblue" points="5229.84,-215.62 5240.18,-213.31 5230.66,-208.67 5229.84,-215.62"/>
</g>
<!-- Node6 -->
<g id="node6" class="node">
<title>Node6</title>
<g id="a_node6"><a xlink:href="../../dc/db7/measurements_8h.html" target="_top" xlink:title=" ">
<polygon fill="white" stroke="black" points="5341.5,-145.5 5341.5,-164.5 5520.5,-164.5 5520.5,-145.5 5341.5,-145.5"/>
<text text-anchor="middle" x="5431" y="-152.5" font-family="Helvetica,sans-Serif" font-size="10.00">src/libs/vformat/measurements.h</text>
</a>
</g>
</g>
<!-- Node4&#45;&gt;Node6 -->
<g id="edge5" class="edge">
<title>Node4&#45;&gt;Node6</title>
<path fill="none" stroke="midnightblue" d="M5330.63,-207.65C5357.87,-193.63 5393.76,-175.16 5414.42,-164.53"/>
<polygon fill="midnightblue" stroke="midnightblue" points="5328.68,-204.71 5321.39,-212.4 5331.89,-210.94 5328.68,-204.71"/>
</g>
<!-- Node7 -->
<g id="node7" class="node">
<title>Node7</title>
<g id="a_node7"><a xlink:href="../../d9/de3/measurements_8cpp.html" target="_top" xlink:title=" ">
<polygon fill="white" stroke="black" points="5347,-73 5347,-92 5537,-92 5537,-73 5347,-73"/>
<text text-anchor="middle" x="5442" y="-80" font-family="Helvetica,sans-Serif" font-size="10.00">src/libs/vformat/measurements.cpp</text>
</a>
</g>
</g>
<!-- Node4&#45;&gt;Node7 -->
<g id="edge7" class="edge">
<title>Node4&#45;&gt;Node7</title>
<path fill="none" stroke="midnightblue" d="M5298.71,-202.36C5303.81,-181.91 5313.77,-152.98 5332,-134 5352.45,-112.7 5383.59,-99.57 5407.52,-92.06"/>
<polygon fill="midnightblue" stroke="midnightblue" points="5295.28,-201.65 5296.47,-212.18 5302.11,-203.21 5295.28,-201.65"/>
</g>
<!-- Node8 -->
<g id="node8" class="node">
<title>Node8</title>
<g id="a_node8"><a xlink:href="../../d6/de0/vlayoutpiece_8h.html" target="_top" xlink:title=" ">
<polygon fill="white" stroke="black" points="627,-145.5 627,-164.5 793,-164.5 793,-145.5 627,-145.5"/>
<text text-anchor="middle" x="710" y="-152.5" font-family="Helvetica,sans-Serif" font-size="10.00">src/libs/vlayout/vlayoutpiece.h</text>
</a>
</g>
</g>
<!-- Node4&#45;&gt;Node8 -->
<g id="edge8" class="edge">
<title>Node4&#45;&gt;Node8</title>
<path fill="none" stroke="midnightblue" d="M5230.19,-212.18C4814.28,-167.82 2221.64,-181.25 1849,-176 1453.74,-170.43 981.37,-161.36 793.24,-157.66"/>
<polygon fill="midnightblue" stroke="midnightblue" points="5229.85,-215.67 5240.18,-213.31 5230.63,-208.71 5229.85,-215.67"/>
</g>
<!-- Node18 -->
<g id="node17" class="node">
<title>Node18</title>
<g id="a_node17"><a xlink:href="../../d8/d70/vtextmanager_8cpp.html" target="_top" xlink:title=" ">
<polygon fill="white" stroke="black" points="1451,-73 1451,-92 1633,-92 1633,-73 1451,-73"/>
<text text-anchor="middle" x="1542" y="-80" font-family="Helvetica,sans-Serif" font-size="10.00">src/libs/vlayout/vtextmanager.cpp</text>
</a>
</g>
</g>
<!-- Node4&#45;&gt;Node18 -->
<g id="edge19" class="edge">
<title>Node4&#45;&gt;Node18</title>
<path fill="none" stroke="midnightblue" d="M5229.94,-212.1C4805.19,-161.94 3784.77,-189.16 3376,-176 2604.95,-151.18 2410.01,-170.77 1642,-98 1626.28,-96.51 1609.26,-94.28 1593.78,-92"/>
<polygon fill="midnightblue" stroke="midnightblue" points="5229.83,-215.61 5240.17,-213.34 5230.67,-208.67 5229.83,-215.61"/>
</g>
<!-- Node19 -->
<g id="node18" class="node">
<title>Node19</title>
<g id="a_node18"><a xlink:href="../../d5/d74/vabstractapplication_8h.html" target="_top" xlink:title=" ">
<polygon fill="white" stroke="red" points="3385.5,-145.5 3385.5,-164.5 3580.5,-164.5 3580.5,-145.5 3385.5,-145.5"/>
<text text-anchor="middle" x="3483" y="-152.5" font-family="Helvetica,sans-Serif" font-size="10.00">src/libs/vmisc/vabstractapplication.h</text>
</a>
</g>
</g>
<!-- Node4&#45;&gt;Node19 -->
<g id="edge20" class="edge">
<title>Node4&#45;&gt;Node19</title>
<path fill="none" stroke="midnightblue" d="M5230,-212.1C4888.04,-169.86 3896.49,-159.07 3580.74,-156.63"/>
<polygon fill="midnightblue" stroke="midnightblue" points="5229.81,-215.6 5240.17,-213.39 5230.69,-208.66 5229.81,-215.6"/>
</g>
<!-- Node47 -->
<g id="node33" class="node">
<title>Node47</title>
<g id="a_node33"><a xlink:href="../../db/d11/vformula_8cpp.html" target="_top" xlink:title=" ">
<polygon fill="white" stroke="black" points="4933.5,-67.5 4933.5,-97.5 5040.5,-97.5 5040.5,-67.5 4933.5,-67.5"/>
<text text-anchor="start" x="4941.5" y="-85.5" font-family="Helvetica,sans-Serif" font-size="10.00">src/libs/vpatterndb</text>
<text text-anchor="middle" x="4987" y="-74.5" font-family="Helvetica,sans-Serif" font-size="10.00">/vformula.cpp</text>
</a>
</g>
</g>
<!-- Node4&#45;&gt;Node47 -->
<g id="edge53" class="edge">
<title>Node4&#45;&gt;Node47</title>
<path fill="none" stroke="midnightblue" d="M5251.44,-208.46C5229.42,-199 5202.17,-187.11 5178,-176 5119.75,-149.23 5052.45,-116.12 5015.31,-97.65"/>
<polygon fill="midnightblue" stroke="midnightblue" points="5250.27,-211.77 5260.84,-212.49 5253.03,-205.33 5250.27,-211.77"/>
</g>
<!-- Node48 -->
<g id="node34" class="node">
<title>Node48</title>
<g id="a_node34"><a xlink:href="../../d6/d46/vcontainer_8cpp.html" target="_top" xlink:title=" ">
<polygon fill="white" stroke="black" points="5058.5,-67.5 5058.5,-97.5 5165.5,-97.5 5165.5,-67.5 5058.5,-67.5"/>
<text text-anchor="start" x="5066.5" y="-85.5" font-family="Helvetica,sans-Serif" font-size="10.00">src/libs/vpatterndb</text>
<text text-anchor="middle" x="5112" y="-74.5" font-family="Helvetica,sans-Serif" font-size="10.00">/vcontainer.cpp</text>
</a>
</g>
</g>
<!-- Node4&#45;&gt;Node48 -->
<g id="edge55" class="edge">
<title>Node4&#45;&gt;Node48</title>
<path fill="none" stroke="midnightblue" d="M5267.94,-206.03C5230.5,-176.6 5162.42,-123.12 5130.04,-97.68"/>
<polygon fill="midnightblue" stroke="midnightblue" points="5265.86,-208.84 5275.88,-212.27 5270.18,-203.34 5265.86,-208.84"/>
</g>
<!-- Node49 -->
<g id="node35" class="node">
<title>Node49</title>
<g id="a_node35"><a xlink:href="../../df/d7a/vpiece_8cpp.html" target="_top" xlink:title=" ">
<polygon fill="white" stroke="black" points="5183.5,-67.5 5183.5,-97.5 5290.5,-97.5 5290.5,-67.5 5183.5,-67.5"/>
<text text-anchor="start" x="5191.5" y="-85.5" font-family="Helvetica,sans-Serif" font-size="10.00">src/libs/vpatterndb</text>
<text text-anchor="middle" x="5237" y="-74.5" font-family="Helvetica,sans-Serif" font-size="10.00">/vpiece.cpp</text>
</a>
</g>
</g>
<!-- Node4&#45;&gt;Node49 -->
<g id="edge56" class="edge">
<title>Node4&#45;&gt;Node49</title>
<path fill="none" stroke="midnightblue" d="M5277.05,-204C5271.31,-195.56 5265.28,-185.67 5261,-176 5249.33,-149.6 5242.43,-116.35 5239.22,-97.77"/>
<polygon fill="midnightblue" stroke="midnightblue" points="5274.21,-206.05 5282.84,-212.2 5279.93,-202.01 5274.21,-206.05"/>
</g>
<!-- Node51 -->
<g id="node37" class="node">
<title>Node51</title>
<g id="a_node37"><a xlink:href="../../d8/dba/vpiecenode_8cpp.html" target="_top" xlink:title=" ">
<polygon fill="white" stroke="black" points="5036.5,-0.5 5036.5,-30.5 5143.5,-30.5 5143.5,-0.5 5036.5,-0.5"/>
<text text-anchor="start" x="5044.5" y="-18.5" font-family="Helvetica,sans-Serif" font-size="10.00">src/libs/vpatterndb</text>
<text text-anchor="middle" x="5090" y="-7.5" font-family="Helvetica,sans-Serif" font-size="10.00">/vpiecenode.cpp</text>
</a>
</g>
</g>
<!-- Node4&#45;&gt;Node51 -->
<g id="edge57" class="edge">
<title>Node4&#45;&gt;Node51</title>
<path fill="none" stroke="midnightblue" d="M5296.45,-202.24C5300.44,-160.21 5307.14,-77.34 5299,-67 5280.01,-42.87 5199.13,-28.9 5143.74,-22"/>
<polygon fill="midnightblue" stroke="midnightblue" points="5292.94,-202.15 5295.45,-212.44 5299.91,-202.83 5292.94,-202.15"/>
</g>
<!-- Node65 -->
<g id="node45" class="node">
<title>Node65</title>
<g id="a_node45"><a xlink:href="../../d3/d02/custom__variable__p_8h.html" target="_top" xlink:title=" ">
<polygon fill="white" stroke="red" points="5538.5,-140 5538.5,-170 5707.5,-170 5707.5,-140 5538.5,-140"/>
<text text-anchor="start" x="5546.5" y="-158" font-family="Helvetica,sans-Serif" font-size="10.00">src/libs/vpatterndb</text>
<text text-anchor="middle" x="5623" y="-147" font-family="Helvetica,sans-Serif" font-size="10.00">/variables/custom_variable_p.h</text>
</a>
</g>
</g>
<!-- Node4&#45;&gt;Node65 -->
<g id="edge51" class="edge">
<title>Node4&#45;&gt;Node65</title>
<path fill="none" stroke="midnightblue" d="M5357.74,-212.88C5405.23,-202.73 5471.67,-188.51 5530,-176 5538.96,-174.08 5548.41,-172.05 5557.71,-170.05"/>
<polygon fill="midnightblue" stroke="midnightblue" points="5356.95,-209.47 5347.9,-214.98 5358.41,-216.32 5356.95,-209.47"/>
</g>
<!-- Node67 -->
<g id="node46" class="node">
<title>Node67</title>
<g id="a_node46"><a xlink:href="../../d7/d8a/measurement__variable__p_8h.html" target="_top" xlink:title=" ">
<polygon fill="white" stroke="red" points="5726,-134.5 5726,-175.5 5862,-175.5 5862,-134.5 5726,-134.5"/>
<text text-anchor="start" x="5734" y="-163.5" font-family="Helvetica,sans-Serif" font-size="10.00">src/libs/vpatterndb</text>
<text text-anchor="start" x="5734" y="-152.5" font-family="Helvetica,sans-Serif" font-size="10.00">/variables/measurement</text>
<text text-anchor="middle" x="5794" y="-141.5" font-family="Helvetica,sans-Serif" font-size="10.00">_variable_p.h</text>
</a>
</g>
</g>
<!-- Node4&#45;&gt;Node67 -->
<g id="edge52" class="edge">
<title>Node4&#45;&gt;Node67</title>
<path fill="none" stroke="midnightblue" d="M5357.83,-221.59C5441,-214.57 5590.72,-199.82 5717,-176 5719.85,-175.46 5722.75,-174.88 5725.67,-174.26"/>
<polygon fill="midnightblue" stroke="midnightblue" points="5357.45,-218.11 5347.77,-222.43 5358.03,-225.08 5357.45,-218.11"/>
</g>
<!-- Node69 -->
<g id="node47" class="node">
<title>Node69</title>
<g id="a_node47"><a xlink:href="../../d6/d91/vnodedetail_8cpp.html" target="_top" xlink:title=" ">
<polygon fill="white" stroke="black" points="5880.5,-140 5880.5,-170 5987.5,-170 5987.5,-140 5880.5,-140"/>
<text text-anchor="start" x="5888.5" y="-158" font-family="Helvetica,sans-Serif" font-size="10.00">src/libs/vpatterndb</text>
<text text-anchor="middle" x="5934" y="-147" font-family="Helvetica,sans-Serif" font-size="10.00">/vnodedetail.cpp</text>
</a>
</g>
</g>
<!-- Node4&#45;&gt;Node69 -->
<g id="edge54" class="edge">
<title>Node4&#45;&gt;Node69</title>
<path fill="none" stroke="midnightblue" d="M5357.86,-225.48C5464.95,-222.77 5687.12,-212.77 5871,-176 5878.65,-174.47 5886.68,-172.34 5894.35,-170.04"/>
<polygon fill="midnightblue" stroke="midnightblue" points="5357.77,-221.99 5347.86,-225.73 5357.94,-228.98 5357.77,-221.99"/>
</g>
<!-- Node70 -->
<g id="node48" class="node">
<title>Node70</title>
<g id="a_node48"><a xlink:href="../../da/de1/vpiecepath_8cpp.html" target="_top" xlink:title=" ">
<polygon fill="white" stroke="black" points="6005.5,-140 6005.5,-170 6112.5,-170 6112.5,-140 6005.5,-140"/>
<text text-anchor="start" x="6013.5" y="-158" font-family="Helvetica,sans-Serif" font-size="10.00">src/libs/vpatterndb</text>
<text text-anchor="middle" x="6059" y="-147" font-family="Helvetica,sans-Serif" font-size="10.00">/vpiecepath.cpp</text>
</a>
</g>
</g>
<!-- Node4&#45;&gt;Node70 -->
<g id="edge58" class="edge">
<title>Node4&#45;&gt;Node70</title>
<path fill="none" stroke="midnightblue" d="M5358.04,-227.01C5482.41,-226.89 5764.79,-221.11 5997,-176 6004.66,-174.51 6012.7,-172.37 6020.35,-170.04"/>
<polygon fill="midnightblue" stroke="midnightblue" points="5357.93,-223.51 5347.93,-227.01 5357.93,-230.51 5357.93,-223.51"/>
</g>
<!-- Node71 -->
<g id="node49" class="node">
<title>Node71</title>
<g id="a_node49"><a xlink:href="../../d1/d3a/abstracttest_8cpp.html" target="_top" xlink:title=" ">
<polygon fill="white" stroke="black" points="6130.5,-145.5 6130.5,-164.5 6291.5,-164.5 6291.5,-145.5 6130.5,-145.5"/>
<text text-anchor="middle" x="6211" y="-152.5" font-family="Helvetica,sans-Serif" font-size="10.00">src/libs/vtest/abstracttest.cpp</text>
</a>
</g>
</g>
<!-- Node4&#45;&gt;Node71 -->
<g id="edge59" class="edge">
<title>Node4&#45;&gt;Node71</title>
<path fill="none" stroke="midnightblue" d="M5357.65,-226.08C5496.93,-224.41 5838.92,-216.18 6122,-176 6140.97,-173.31 6161.89,-168.69 6178.68,-164.57"/>
<polygon fill="midnightblue" stroke="midnightblue" points="5357.54,-222.58 5347.58,-226.2 5357.61,-229.58 5357.54,-222.58"/>
</g>
<!-- Node72 -->
<g id="node50" class="node">
<title>Node72</title>
<g id="a_node50"><a xlink:href="../../da/db4/piece__tablewidgetitem_8cpp.html" target="_top" xlink:title=" ">
<polygon fill="white" stroke="black" points="6310,-140 6310,-170 6438,-170 6438,-140 6310,-140"/>
<text text-anchor="start" x="6318" y="-158" font-family="Helvetica,sans-Serif" font-size="10.00">src/libs/vwidgets/piece</text>
<text text-anchor="middle" x="6374" y="-147" font-family="Helvetica,sans-Serif" font-size="10.00">_tablewidgetitem.cpp</text>
</a>
</g>
</g>
<!-- Node4&#45;&gt;Node72 -->
<g id="edge60" class="edge">
<title>Node4&#45;&gt;Node72</title>
<path fill="none" stroke="midnightblue" d="M5357.85,-225.11C5549.54,-220.66 6118.12,-205.28 6301,-176 6310.08,-174.55 6319.66,-172.39 6328.77,-170.03"/>
<polygon fill="midnightblue" stroke="midnightblue" points="5357.57,-221.62 5347.65,-225.35 5357.73,-228.62 5357.57,-221.62"/>
</g>
<!-- Node6&#45;&gt;Node7 -->
<g id="edge6" class="edge">
<title>Node6&#45;&gt;Node7</title>
<path fill="none" stroke="midnightblue" d="M5433.91,-135.36C5436.09,-121.4 5438.97,-102.93 5440.64,-92.22"/>
<polygon fill="midnightblue" stroke="midnightblue" points="5430.43,-134.94 5432.35,-145.36 5437.35,-136.01 5430.43,-134.94"/>
</g>
<!-- Node9 -->
<g id="node9" class="node">
<title>Node9</title>
<g id="a_node9"><a xlink:href="../../dd/d66/vdxfengine_8cpp.html" target="_top" xlink:title=" ">
<polygon fill="white" stroke="black" points="954,-73 954,-92 1108,-92 1108,-73 954,-73"/>
<text text-anchor="middle" x="1031" y="-80" font-family="Helvetica,sans-Serif" font-size="10.00">src/libs/vdxf/vdxfengine.cpp</text>
</a>
</g>
</g>
<!-- Node8&#45;&gt;Node9 -->
<g id="edge9" class="edge">
<title>Node8&#45;&gt;Node9</title>
<path fill="none" stroke="midnightblue" d="M758.55,-143.34C822.45,-129.3 933.5,-104.91 992.14,-92.03"/>
<polygon fill="midnightblue" stroke="midnightblue" points="757.74,-139.93 748.72,-145.5 759.24,-146.77 757.74,-139.93"/>
</g>
<!-- Node10 -->
<g id="node10" class="node">
<title>Node10</title>
<g id="a_node10"><a xlink:href="../../de/da8/vbank_8cpp.html" target="_top" xlink:title=" ">
<polygon fill="white" stroke="black" points="0,-73 0,-92 144,-92 144,-73 0,-73"/>
<text text-anchor="middle" x="72" y="-80" font-family="Helvetica,sans-Serif" font-size="10.00">src/libs/vlayout/vbank.cpp</text>
</a>
</g>
</g>
<!-- Node8&#45;&gt;Node10 -->
<g id="edge10" class="edge">
<title>Node8&#45;&gt;Node10</title>
<path fill="none" stroke="midnightblue" d="M616.57,-146.82C505.71,-137.78 315.42,-120.67 153,-98 140.97,-96.32 128,-94.16 116.04,-92.02"/>
<polygon fill="midnightblue" stroke="midnightblue" points="616.47,-150.32 626.72,-147.64 617.03,-143.34 616.47,-150.32"/>
</g>
<!-- Node11 -->
<g id="node11" class="node">
<title>Node11</title>
<g id="a_node11"><a xlink:href="../../df/d5d/vcontour_8cpp.html" target="_top" xlink:title=" ">
<polygon fill="white" stroke="black" points="162,-73 162,-92 318,-92 318,-73 162,-73"/>
<text text-anchor="middle" x="240" y="-80" font-family="Helvetica,sans-Serif" font-size="10.00">src/libs/vlayout/vcontour.cpp</text>
</a>
</g>
</g>
<!-- Node8&#45;&gt;Node11 -->
<g id="edge11" class="edge">
<title>Node8&#45;&gt;Node11</title>
<path fill="none" stroke="midnightblue" d="M639.19,-144.08C562.28,-133.2 435.81,-115.02 327,-98 315.05,-96.13 302.19,-94.03 290.12,-92.03"/>
<polygon fill="midnightblue" stroke="midnightblue" points="638.86,-147.57 649.25,-145.5 639.84,-140.63 638.86,-147.57"/>
</g>
<!-- Node12 -->
<g id="node12" class="node">
<title>Node12</title>
<g id="a_node12"><a xlink:href="../../d2/d2d/vlayoutpaper__p_8h.html" target="_top" xlink:title=" ">
<polygon fill="white" stroke="black" points="336.5,-73 336.5,-92 515.5,-92 515.5,-73 336.5,-73"/>
<text text-anchor="middle" x="426" y="-80" font-family="Helvetica,sans-Serif" font-size="10.00">src/libs/vlayout/vlayoutpaper_p.h</text>
</a>
</g>
</g>
<!-- Node8&#45;&gt;Node12 -->
<g id="edge12" class="edge">
<title>Node8&#45;&gt;Node12</title>
<path fill="none" stroke="midnightblue" d="M665.99,-143.08C609.3,-129 511.94,-104.83 460.38,-92.03"/>
<polygon fill="midnightblue" stroke="midnightblue" points="665.19,-146.48 675.74,-145.5 666.88,-139.69 665.19,-146.48"/>
</g>
<!-- Node13 -->
<g id="node13" class="node">
<title>Node13</title>
<g id="a_node13"><a xlink:href="../../d1/dd1/vlayoutpaper_8cpp.html" target="_top" xlink:title=" ">
<polygon fill="white" stroke="black" points="519,-6 519,-25 697,-25 697,-6 519,-6"/>
<text text-anchor="middle" x="608" y="-13" font-family="Helvetica,sans-Serif" font-size="10.00">src/libs/vlayout/vlayoutpaper.cpp</text>
</a>
</g>
</g>
<!-- Node8&#45;&gt;Node13 -->
<g id="edge15" class="edge">
<title>Node8&#45;&gt;Node13</title>
<path fill="none" stroke="midnightblue" d="M710.06,-135.2C709.23,-116.33 705.42,-87.22 691,-67 676.5,-46.68 651.03,-32.97 632.11,-25.03"/>
<polygon fill="midnightblue" stroke="midnightblue" points="706.56,-135.53 710.26,-145.46 713.56,-135.39 706.56,-135.53"/>
</g>
<!-- Node14 -->
<g id="node14" class="node">
<title>Node14</title>
<g id="a_node14"><a xlink:href="../../d3/d39/vlayoutgenerator_8cpp.html" target="_top" xlink:title=" ">
<polygon fill="white" stroke="black" points="738.5,-73 738.5,-92 935.5,-92 935.5,-73 738.5,-73"/>
<text text-anchor="middle" x="837" y="-80" font-family="Helvetica,sans-Serif" font-size="10.00">src/libs/vlayout/vlayoutgenerator.cpp</text>
</a>
</g>
</g>
<!-- Node8&#45;&gt;Node14 -->
<g id="edge14" class="edge">
<title>Node8&#45;&gt;Node14</title>
<path fill="none" stroke="midnightblue" d="M734.32,-140.5C759.94,-126.28 799.52,-104.3 821.3,-92.22"/>
<polygon fill="midnightblue" stroke="midnightblue" points="732.62,-137.44 725.57,-145.36 736.01,-143.56 732.62,-137.44"/>
</g>
<!-- Node15 -->
<g id="node15" class="node">
<title>Node15</title>
<g id="a_node15"><a xlink:href="../../dd/d70/vlayoutpiece_8cpp.html" target="_top" xlink:title=" ">
<polygon fill="white" stroke="black" points="1126.5,-73 1126.5,-92 1303.5,-92 1303.5,-73 1126.5,-73"/>
<text text-anchor="middle" x="1215" y="-80" font-family="Helvetica,sans-Serif" font-size="10.00">src/libs/vlayout/vlayoutpiece.cpp</text>
</a>
</g>
</g>
<!-- Node8&#45;&gt;Node15 -->
<g id="edge16" class="edge">
<title>Node8&#45;&gt;Node15</title>
<path fill="none" stroke="midnightblue" d="M783.64,-144.1C865.19,-133.08 1000.53,-114.63 1117,-98 1130.28,-96.1 1144.57,-94.02 1158.01,-92.03"/>
<polygon fill="midnightblue" stroke="midnightblue" points="782.92,-140.66 773.48,-145.47 783.85,-147.6 782.92,-140.66"/>
</g>
<!-- Node16 -->
<g id="node16" class="node">
<title>Node16</title>
<g id="a_node16"><a xlink:href="../../db/d5c/vposition_8h.html" target="_top" xlink:title=" ">
<polygon fill="white" stroke="red" points="534,-73 534,-92 682,-92 682,-73 534,-73"/>
<text text-anchor="middle" x="608" y="-80" font-family="Helvetica,sans-Serif" font-size="10.00">src/libs/vlayout/vposition.h</text>
</a>
</g>
</g>
<!-- Node8&#45;&gt;Node16 -->
<g id="edge17" class="edge">
<title>Node8&#45;&gt;Node16</title>
<path fill="none" stroke="midnightblue" d="M689.1,-139.55C668.5,-125.32 637.72,-104.04 620.61,-92.22"/>
<polygon fill="midnightblue" stroke="midnightblue" points="687.28,-142.55 697.49,-145.36 691.26,-136.79 687.28,-142.55"/>
</g>
<!-- Node12&#45;&gt;Node13 -->
<g id="edge13" class="edge">
<title>Node12&#45;&gt;Node13</title>
<path fill="none" stroke="midnightblue" d="M459.78,-69.44C495.88,-56.54 552.21,-36.42 584.02,-25.06"/>
<polygon fill="midnightblue" stroke="midnightblue" points="458.41,-66.21 450.17,-72.87 460.76,-72.8 458.41,-66.21"/>
</g>
<!-- Node16&#45;&gt;Node13 -->
<g id="edge18" class="edge">
<title>Node16&#45;&gt;Node13</title>
<path fill="none" stroke="midnightblue" d="M608,-62.54C608,-50.17 608,-34.62 608,-25.13"/>
<polygon fill="midnightblue" stroke="midnightblue" points="604.5,-62.73 608,-72.73 611.5,-62.73 604.5,-62.73"/>
</g>
<!-- Node19&#45;&gt;Node5 -->
<g id="edge23" class="edge">
<title>Node19&#45;&gt;Node5</title>
<path fill="none" stroke="midnightblue" d="M3375.23,-153.77C3010.08,-152.58 1821.33,-145.07 1442,-98 1439.13,-97.64 1436.2,-97.22 1433.25,-96.74"/>
<polygon fill="midnightblue" stroke="midnightblue" points="3375.26,-157.27 3385.27,-153.81 3375.28,-150.27 3375.26,-157.27"/>
</g>
<!-- Node19&#45;&gt;Node15 -->
<g id="edge33" class="edge">
<title>Node19&#45;&gt;Node15</title>
<path fill="none" stroke="midnightblue" d="M3375.03,-152.97C2994.88,-149.06 1719.34,-133.56 1312,-98 1296.39,-96.64 1279.48,-94.38 1264.21,-92.05"/>
<polygon fill="midnightblue" stroke="midnightblue" points="3375.17,-156.47 3385.2,-153.07 3375.24,-149.47 3375.17,-156.47"/>
</g>
<!-- Node19&#45;&gt;Node18 -->
<g id="edge34" class="edge">
<title>Node19&#45;&gt;Node18</title>
<path fill="none" stroke="midnightblue" d="M3375.03,-150.23C3255.46,-146.1 3056.97,-139.34 2886,-134 2333.15,-116.74 2193.05,-145.77 1642,-98 1625.92,-96.61 1608.48,-94.34 1592.74,-92.01"/>
<polygon fill="midnightblue" stroke="midnightblue" points="3375.17,-153.74 3385.28,-150.59 3375.41,-146.75 3375.17,-153.74"/>
</g>
<!-- Node20 -->
<g id="node19" class="node">
<title>Node20</title>
<g id="a_node19"><a xlink:href="../../d4/d90/fvupdater_8cpp.html" target="_top" xlink:title=" ">
<polygon fill="white" stroke="black" points="2849.5,-73 2849.5,-92 3002.5,-92 3002.5,-73 2849.5,-73"/>
<text text-anchor="middle" x="2926" y="-80" font-family="Helvetica,sans-Serif" font-size="10.00">src/libs/fervor/fvupdater.cpp</text>
</a>
</g>
</g>
<!-- Node19&#45;&gt;Node20 -->
<g id="edge21" class="edge">
<title>Node19&#45;&gt;Node20</title>
<path fill="none" stroke="midnightblue" d="M3391,-144.4C3295.93,-134.17 3143.34,-116.87 3012,-98 2999.71,-96.23 2986.47,-94.11 2974.15,-92.04"/>
<polygon fill="midnightblue" stroke="midnightblue" points="3390.84,-147.9 3401.16,-145.49 3391.59,-140.94 3390.84,-147.9"/>
</g>
<!-- Node21 -->
<g id="node20" class="node">
<title>Node21</title>
<g id="a_node20"><a xlink:href="../../d1/d8d/image__item_8h.html" target="_top" xlink:title=" ">
<polygon fill="white" stroke="red" points="3021,-67.5 3021,-97.5 3133,-97.5 3133,-67.5 3021,-67.5"/>
<text text-anchor="start" x="3029" y="-85.5" font-family="Helvetica,sans-Serif" font-size="10.00">src/libs/tools/image</text>
<text text-anchor="middle" x="3077" y="-74.5" font-family="Helvetica,sans-Serif" font-size="10.00">_item.h</text>
</a>
</g>
</g>
<!-- Node19&#45;&gt;Node21 -->
<g id="edge22" class="edge">
<title>Node19&#45;&gt;Node21</title>
<path fill="none" stroke="midnightblue" d="M3414.6,-143.93C3345.61,-133.51 3236.12,-116.21 3142,-98 3139.16,-97.45 3136.26,-96.87 3133.33,-96.27"/>
<polygon fill="midnightblue" stroke="midnightblue" points="3414.49,-147.46 3424.9,-145.49 3415.53,-140.53 3414.49,-147.46"/>
</g>
<!-- Node31 -->
<g id="node21" class="node">
<title>Node31</title>
<g id="a_node21"><a xlink:href="../../d9/dc8/dxiface_8cpp.html" target="_top" xlink:title=" ">
<polygon fill="white" stroke="black" points="3151.5,-73 3151.5,-92 3286.5,-92 3286.5,-73 3151.5,-73"/>
<text text-anchor="middle" x="3219" y="-80" font-family="Helvetica,sans-Serif" font-size="10.00">src/libs/vdxf/dxiface.cpp</text>
</a>
</g>
</g>
<!-- Node19&#45;&gt;Node31 -->
<g id="edge24" class="edge">
<title>Node19&#45;&gt;Node31</title>
<path fill="none" stroke="midnightblue" d="M3441.43,-142.9C3388.64,-128.8 3298.69,-104.78 3250.96,-92.03"/>
<polygon fill="midnightblue" stroke="midnightblue" points="3440.59,-146.3 3451.16,-145.5 3442.4,-139.53 3440.59,-146.3"/>
</g>
<!-- Node32 -->
<g id="node22" class="node">
<title>Node32</title>
<g id="a_node22"><a xlink:href="../../da/d75/vabstractarc__p_8h.html" target="_top" xlink:title=" ">
<polygon fill="white" stroke="red" points="3304.5,-67.5 3304.5,-97.5 3411.5,-97.5 3411.5,-67.5 3304.5,-67.5"/>
<text text-anchor="start" x="3312.5" y="-85.5" font-family="Helvetica,sans-Serif" font-size="10.00">src/libs/vgeometry</text>
<text text-anchor="middle" x="3358" y="-74.5" font-family="Helvetica,sans-Serif" font-size="10.00">/vabstractarc_p.h</text>
</a>
</g>
</g>
<!-- Node19&#45;&gt;Node32 -->
<g id="edge25" class="edge">
<title>Node19&#45;&gt;Node32</title>
<path fill="none" stroke="midnightblue" d="M3458.71,-140.3C3436.89,-127.99 3404.98,-110 3382.96,-97.58"/>
<polygon fill="midnightblue" stroke="midnightblue" points="3457.24,-143.49 3467.67,-145.36 3460.68,-137.39 3457.24,-143.49"/>
</g>
<!-- Node34 -->
<g id="node23" class="node">
<title>Node34</title>
<g id="a_node23"><a xlink:href="../../dc/da3/varc__p_8h.html" target="_top" xlink:title=" ">
<polygon fill="white" stroke="red" points="3429.5,-67.5 3429.5,-97.5 3536.5,-97.5 3536.5,-67.5 3429.5,-67.5"/>
<text text-anchor="start" x="3437.5" y="-85.5" font-family="Helvetica,sans-Serif" font-size="10.00">src/libs/vgeometry</text>
<text text-anchor="middle" x="3483" y="-74.5" font-family="Helvetica,sans-Serif" font-size="10.00">/varc_p.h</text>
</a>
</g>
</g>
<!-- Node19&#45;&gt;Node34 -->
<g id="edge26" class="edge">
<title>Node19&#45;&gt;Node34</title>
<path fill="none" stroke="midnightblue" d="M3483,-135.24C3483,-123.41 3483,-108.38 3483,-97.58"/>
<polygon fill="midnightblue" stroke="midnightblue" points="3479.5,-135.36 3483,-145.36 3486.5,-135.36 3479.5,-135.36"/>
</g>
<!-- Node36 -->
<g id="node24" class="node">
<title>Node36</title>
<g id="a_node24"><a xlink:href="../../d5/d8e/vcubicbezier__p_8h.html" target="_top" xlink:title=" ">
<polygon fill="white" stroke="red" points="3554.5,-67.5 3554.5,-97.5 3661.5,-97.5 3661.5,-67.5 3554.5,-67.5"/>
<text text-anchor="start" x="3562.5" y="-85.5" font-family="Helvetica,sans-Serif" font-size="10.00">src/libs/vgeometry</text>
<text text-anchor="middle" x="3608" y="-74.5" font-family="Helvetica,sans-Serif" font-size="10.00">/vcubicbezier_p.h</text>
</a>
</g>
</g>
<!-- Node19&#45;&gt;Node36 -->
<g id="edge27" class="edge">
<title>Node19&#45;&gt;Node36</title>
<path fill="none" stroke="midnightblue" d="M3507.29,-140.3C3529.11,-127.99 3561.02,-110 3583.04,-97.58"/>
<polygon fill="midnightblue" stroke="midnightblue" points="3505.32,-137.39 3498.33,-145.36 3508.76,-143.49 3505.32,-137.39"/>
</g>
<!-- Node38 -->
<g id="node25" class="node">
<title>Node38</title>
<g id="a_node25"><a xlink:href="../../df/dde/vellipticalarc__p_8h.html" target="_top" xlink:title=" ">
<polygon fill="white" stroke="black" points="3679.5,-67.5 3679.5,-97.5 3786.5,-97.5 3786.5,-67.5 3679.5,-67.5"/>
<text text-anchor="start" x="3687.5" y="-85.5" font-family="Helvetica,sans-Serif" font-size="10.00">src/libs/vgeometry</text>
<text text-anchor="middle" x="3733" y="-74.5" font-family="Helvetica,sans-Serif" font-size="10.00">/vellipticalarc_p.h</text>
</a>
</g>
</g>
<!-- Node19&#45;&gt;Node38 -->
<g id="edge28" class="edge">
<title>Node19&#45;&gt;Node38</title>
<path fill="none" stroke="midnightblue" d="M3522.83,-142.77C3566.38,-130.49 3636.24,-110.79 3683.33,-97.51"/>
<polygon fill="midnightblue" stroke="midnightblue" points="3521.83,-139.41 3513.16,-145.5 3523.73,-146.15 3521.83,-139.41"/>
</g>
<!-- Node39 -->
<g id="node26" class="node">
<title>Node39</title>
<g id="a_node26"><a xlink:href="../../d6/dfb/vellipticalarc_8cpp.html" target="_top" xlink:title=" ">
<polygon fill="white" stroke="black" points="3720.5,-0.5 3720.5,-30.5 3827.5,-30.5 3827.5,-0.5 3720.5,-0.5"/>
<text text-anchor="start" x="3728.5" y="-18.5" font-family="Helvetica,sans-Serif" font-size="10.00">src/libs/vgeometry</text>
<text text-anchor="middle" x="3774" y="-7.5" font-family="Helvetica,sans-Serif" font-size="10.00">/vellipticalarc.cpp</text>
</a>
</g>
</g>
<!-- Node19&#45;&gt;Node39 -->
<g id="edge30" class="edge">
<title>Node19&#45;&gt;Node39</title>
<path fill="none" stroke="midnightblue" d="M3590.85,-149.03C3670.4,-142.83 3769.1,-128.97 3795,-98 3811.22,-78.61 3795.93,-48.21 3784.31,-30.53"/>
<polygon fill="midnightblue" stroke="midnightblue" points="3590.47,-145.55 3580.76,-149.78 3590.99,-152.53 3590.47,-145.55"/>
</g>
<!-- Node40 -->
<g id="node27" class="node">
<title>Node40</title>
<g id="a_node27"><a xlink:href="../../d1/d76/vspline__p_8h.html" target="_top" xlink:title=" ">
<polygon fill="white" stroke="red" points="3843.5,-67.5 3843.5,-97.5 3950.5,-97.5 3950.5,-67.5 3843.5,-67.5"/>
<text text-anchor="start" x="3851.5" y="-85.5" font-family="Helvetica,sans-Serif" font-size="10.00">src/libs/vgeometry</text>
<text text-anchor="middle" x="3897" y="-74.5" font-family="Helvetica,sans-Serif" font-size="10.00">/vspline_p.h</text>
</a>
</g>
</g>
<!-- Node19&#45;&gt;Node40 -->
<g id="edge31" class="edge">
<title>Node19&#45;&gt;Node40</title>
<path fill="none" stroke="midnightblue" d="M3551.32,-143.97C3621.24,-133.46 3732.94,-116 3829,-98 3833.63,-97.13 3838.42,-96.19 3843.23,-95.22"/>
<polygon fill="midnightblue" stroke="midnightblue" points="3550.68,-140.52 3541.31,-145.47 3551.72,-147.44 3550.68,-140.52"/>
</g>
<!-- Node42 -->
<g id="node28" class="node">
<title>Node42</title>
<g id="a_node28"><a xlink:href="../../d9/d15/vabstractpiece_8cpp.html" target="_top" xlink:title=" ">
<polygon fill="white" stroke="black" points="3969,-73 3969,-92 4155,-92 4155,-73 3969,-73"/>
<text text-anchor="middle" x="4062" y="-80" font-family="Helvetica,sans-Serif" font-size="10.00">src/libs/vlayout/vabstractpiece.cpp</text>
</a>
</g>
</g>
<!-- Node19&#45;&gt;Node42 -->
<g id="edge32" class="edge">
<title>Node19&#45;&gt;Node42</title>
<path fill="none" stroke="midnightblue" d="M3570.34,-144.33C3665.87,-133.61 3823.44,-115.51 3959,-98 3973.33,-96.15 3988.76,-94.04 4003.21,-92.01"/>
<polygon fill="midnightblue" stroke="midnightblue" points="3569.7,-140.88 3560.15,-145.47 3570.48,-147.83 3569.7,-140.88"/>
</g>
<!-- Node43 -->
<g id="node29" class="node">
<title>Node43</title>
<g id="a_node29"><a xlink:href="../../db/d65/dialogexporttocsv_8cpp.html" target="_top" xlink:title=" ">
<polygon fill="white" stroke="black" points="4173.5,-67.5 4173.5,-97.5 4300.5,-97.5 4300.5,-67.5 4173.5,-67.5"/>
<text text-anchor="start" x="4181.5" y="-85.5" font-family="Helvetica,sans-Serif" font-size="10.00">src/libs/vmisc/dialogs</text>
<text text-anchor="middle" x="4237" y="-74.5" font-family="Helvetica,sans-Serif" font-size="10.00">/dialogexporttocsv.cpp</text>
</a>
</g>
</g>
<!-- Node19&#45;&gt;Node43 -->
<g id="edge35" class="edge">
<title>Node19&#45;&gt;Node43</title>
<path fill="none" stroke="midnightblue" d="M3590.96,-148.93C3725.61,-141.73 3962.62,-126.19 4164,-98 4167.07,-97.57 4170.21,-97.09 4173.37,-96.58"/>
<polygon fill="midnightblue" stroke="midnightblue" points="3590.45,-145.45 3580.65,-149.48 3590.82,-152.44 3590.45,-145.45"/>
</g>
<!-- Node44 -->
<g id="node30" class="node">
<title>Node44</title>
<g id="a_node30"><a xlink:href="../../d0/df6/vabstractapplication_8cpp.html" target="_top" xlink:title=" ">
<polygon fill="white" stroke="black" points="4319,-73 4319,-92 4525,-92 4525,-73 4319,-73"/>
<text text-anchor="middle" x="4422" y="-80" font-family="Helvetica,sans-Serif" font-size="10.00">src/libs/vmisc/vabstractapplication.cpp</text>
</a>
</g>
</g>
<!-- Node19&#45;&gt;Node44 -->
<g id="edge36" class="edge">
<title>Node19&#45;&gt;Node44</title>
<path fill="none" stroke="midnightblue" d="M3590.94,-148.75C3748.84,-140.6 4051.97,-123.18 4309,-98 4325.83,-96.35 4344.02,-94.19 4360.79,-92.03"/>
<polygon fill="midnightblue" stroke="midnightblue" points="3590.55,-145.26 3580.75,-149.27 3590.91,-152.26 3590.55,-145.26"/>
</g>
<!-- Node45 -->
<g id="node31" class="node">
<title>Node45</title>
<g id="a_node31"><a xlink:href="../../d6/d0b/def_8cpp.html" target="_top" xlink:title=" ">
<polygon fill="white" stroke="black" points="4543,-73 4543,-92 4665,-92 4665,-73 4543,-73"/>
<text text-anchor="middle" x="4604" y="-80" font-family="Helvetica,sans-Serif" font-size="10.00">src/libs/vmisc/def.cpp</text>
</a>
</g>
</g>
<!-- Node19&#45;&gt;Node45 -->
<g id="edge37" class="edge">
<title>Node19&#45;&gt;Node45</title>
<path fill="none" stroke="midnightblue" d="M3590.56,-153.61C3781.37,-151.74 4191.3,-142.37 4534,-98 4545.08,-96.57 4557.02,-94.35 4567.84,-92.07"/>
<polygon fill="midnightblue" stroke="midnightblue" points="3590.49,-150.12 3580.53,-153.71 3590.56,-157.11 3590.49,-150.12"/>
</g>
<!-- Node46 -->
<g id="node32" class="node">
<title>Node46</title>
<g id="a_node32"><a xlink:href="../../d4/d4f/pmsystems_8cpp.html" target="_top" xlink:title=" ">
<polygon fill="white" stroke="black" points="4683.5,-67.5 4683.5,-97.5 4790.5,-97.5 4790.5,-67.5 4683.5,-67.5"/>
<text text-anchor="start" x="4691.5" y="-85.5" font-family="Helvetica,sans-Serif" font-size="10.00">src/libs/vpatterndb</text>
<text text-anchor="middle" x="4737" y="-74.5" font-family="Helvetica,sans-Serif" font-size="10.00">/pmsystems.cpp</text>
</a>
</g>
</g>
<!-- Node19&#45;&gt;Node46 -->
<g id="edge38" class="edge">
<title>Node19&#45;&gt;Node46</title>
<path fill="none" stroke="midnightblue" d="M3591.23,-151.4C3843.87,-144.91 4466.68,-126.5 4674,-98 4677,-97.59 4680.07,-97.1 4683.16,-96.56"/>
<polygon fill="midnightblue" stroke="midnightblue" points="3590.85,-147.9 3580.95,-151.66 3591.03,-154.9 3590.85,-147.9"/>
</g>
<!-- Node19&#45;&gt;Node47 -->
<g id="edge39" class="edge">
<title>Node19&#45;&gt;Node47</title>
<path fill="none" stroke="midnightblue" d="M3590.68,-152.43C3879.43,-147.8 4666.48,-132.33 4924,-98 4927,-97.6 4930.07,-97.12 4933.17,-96.59"/>
<polygon fill="midnightblue" stroke="midnightblue" points="3590.56,-148.93 3580.62,-152.59 3590.67,-155.93 3590.56,-148.93"/>
</g>
<!-- Node19&#45;&gt;Node48 -->
<g id="edge40" class="edge">
<title>Node19&#45;&gt;Node48</title>
<path fill="none" stroke="midnightblue" d="M3590.75,-152.82C3896.6,-149.04 4766.31,-135.24 5049,-98 5052,-97.6 5055.08,-97.13 5058.17,-96.6"/>
<polygon fill="midnightblue" stroke="midnightblue" points="3590.5,-149.32 3580.54,-152.94 3590.59,-156.32 3590.5,-149.32"/>
</g>
<!-- Node19&#45;&gt;Node49 -->
<g id="edge41" class="edge">
<title>Node19&#45;&gt;Node49</title>
<path fill="none" stroke="midnightblue" d="M3590.81,-153.15C3913.12,-150.18 4866.05,-138.15 5174,-98 5177,-97.61 5180.08,-97.14 5183.17,-96.61"/>
<polygon fill="midnightblue" stroke="midnightblue" points="3590.51,-149.65 3580.54,-153.24 3590.57,-156.65 3590.51,-149.65"/>
</g>
<!-- Node50 -->
<g id="node36" class="node">
<title>Node50</title>
<g id="a_node36"><a xlink:href="../../df/dba/vpiecenode__p_8h.html" target="_top" xlink:title=" ">
<polygon fill="white" stroke="black" points="4808.5,-67.5 4808.5,-97.5 4915.5,-97.5 4915.5,-67.5 4808.5,-67.5"/>
<text text-anchor="start" x="4816.5" y="-85.5" font-family="Helvetica,sans-Serif" font-size="10.00">src/libs/vpatterndb</text>
<text text-anchor="middle" x="4862" y="-74.5" font-family="Helvetica,sans-Serif" font-size="10.00">/vpiecenode_p.h</text>
</a>
</g>
</g>
<!-- Node19&#45;&gt;Node50 -->
<g id="edge42" class="edge">
<title>Node19&#45;&gt;Node50</title>
<path fill="none" stroke="midnightblue" d="M3590.78,-151.97C3861.79,-146.44 4566.59,-129.42 4799,-98 4802,-97.59 4805.07,-97.11 4808.16,-96.58"/>
<polygon fill="midnightblue" stroke="midnightblue" points="3590.46,-148.47 3580.54,-152.17 3590.61,-155.47 3590.46,-148.47"/>
</g>
<!-- Node52 -->
<g id="node38" class="node">
<title>Node52</title>
<g id="a_node38"><a xlink:href="../../de/d3e/vtranslatevars_8cpp.html" target="_top" xlink:title=" ">
<polygon fill="white" stroke="black" points="1651,-67.5 1651,-97.5 1761,-97.5 1761,-67.5 1651,-67.5"/>
<text text-anchor="start" x="1659" y="-85.5" font-family="Helvetica,sans-Serif" font-size="10.00">src/libs/vpatterndb</text>
<text text-anchor="middle" x="1706" y="-74.5" font-family="Helvetica,sans-Serif" font-size="10.00">/vtranslatevars.cpp</text>
</a>
</g>
</g>
<!-- Node19&#45;&gt;Node52 -->
<g id="edge44" class="edge">
<title>Node19&#45;&gt;Node52</title>
<path fill="none" stroke="midnightblue" d="M3375.03,-150.34C3255.45,-146.3 3056.96,-139.62 2886,-134 2390.01,-117.69 2262.23,-161.11 1770,-98 1767.06,-97.62 1764.06,-97.17 1761.04,-96.67"/>
<polygon fill="midnightblue" stroke="midnightblue" points="3375.17,-153.85 3385.28,-150.69 3375.4,-146.85 3375.17,-153.85"/>
</g>
<!-- Node25 -->
<g id="node39" class="node">
<title>Node25</title>
<g id="a_node39"><a xlink:href="../../df/d40/export__format__combobox_8cpp.html" target="_top" xlink:title=" ">
<polygon fill="white" stroke="black" points="1779.5,-67.5 1779.5,-97.5 1912.5,-97.5 1912.5,-67.5 1779.5,-67.5"/>
<text text-anchor="start" x="1787.5" y="-85.5" font-family="Helvetica,sans-Serif" font-size="10.00">src/libs/vwidgets/export</text>
<text text-anchor="middle" x="1846" y="-74.5" font-family="Helvetica,sans-Serif" font-size="10.00">_format_combobox.cpp</text>
</a>
</g>
</g>
<!-- Node19&#45;&gt;Node25 -->
<g id="edge45" class="edge">
<title>Node19&#45;&gt;Node25</title>
<path fill="none" stroke="midnightblue" d="M3375.23,-150.35C3027.87,-138.58 1958.1,-102.07 1922,-98 1918.93,-97.65 1915.8,-97.25 1912.64,-96.81"/>
<polygon fill="midnightblue" stroke="midnightblue" points="3375.18,-153.85 3385.29,-150.7 3375.42,-146.86 3375.18,-153.85"/>
</g>
<!-- Node53 -->
<g id="node40" class="node">
<title>Node53</title>
<g id="a_node40"><a xlink:href="../../d3/d4f/mouse__coordinates_8cpp.html" target="_top" xlink:title=" ">
<polygon fill="white" stroke="black" points="1931,-67.5 1931,-97.5 2065,-97.5 2065,-67.5 1931,-67.5"/>
<text text-anchor="start" x="1939" y="-85.5" font-family="Helvetica,sans-Serif" font-size="10.00">src/libs/vwidgets/mouse</text>
<text text-anchor="middle" x="1998" y="-74.5" font-family="Helvetica,sans-Serif" font-size="10.00">_coordinates.cpp</text>
</a>
</g>
</g>
<!-- Node19&#45;&gt;Node53 -->
<g id="edge46" class="edge">
<title>Node19&#45;&gt;Node53</title>
<path fill="none" stroke="midnightblue" d="M3375.14,-150.15C3056.61,-138.73 2138.25,-105.36 2074,-98 2071.06,-97.66 2068.07,-97.28 2065.05,-96.85"/>
<polygon fill="midnightblue" stroke="midnightblue" points="3375.18,-153.66 3385.3,-150.52 3375.43,-146.66 3375.18,-153.66"/>
</g>
<!-- Node28 -->
<g id="node41" class="node">
<title>Node28</title>
<g id="a_node41"><a xlink:href="../../d2/d28/page__format__combobox_8cpp.html" target="_top" xlink:title=" ">
<polygon fill="white" stroke="black" points="2083.5,-67.5 2083.5,-97.5 2214.5,-97.5 2214.5,-67.5 2083.5,-67.5"/>
<text text-anchor="start" x="2091.5" y="-85.5" font-family="Helvetica,sans-Serif" font-size="10.00">src/libs/vwidgets/page</text>
<text text-anchor="middle" x="2149" y="-74.5" font-family="Helvetica,sans-Serif" font-size="10.00">_format_combobox.cpp</text>
</a>
</g>
</g>
<!-- Node19&#45;&gt;Node28 -->
<g id="edge47" class="edge">
<title>Node19&#45;&gt;Node28</title>
<path fill="none" stroke="midnightblue" d="M3374.82,-150.12C3090.37,-139.78 2335.55,-111.45 2223,-98 2220.27,-97.67 2217.49,-97.3 2214.69,-96.9"/>
<polygon fill="midnightblue" stroke="midnightblue" points="3375.03,-153.63 3385.15,-150.49 3375.29,-146.63 3375.03,-153.63"/>
</g>
<!-- Node54 -->
<g id="node42" class="node">
<title>Node54</title>
<g id="a_node42"><a xlink:href="../../d7/d1b/pen__toolbar_8cpp.html" target="_top" xlink:title=" ">
<polygon fill="white" stroke="black" points="2232.5,-67.5 2232.5,-97.5 2351.5,-97.5 2351.5,-67.5 2232.5,-67.5"/>
<text text-anchor="start" x="2240.5" y="-85.5" font-family="Helvetica,sans-Serif" font-size="10.00">src/libs/vwidgets/pen</text>
<text text-anchor="middle" x="2292" y="-74.5" font-family="Helvetica,sans-Serif" font-size="10.00">_toolbar.cpp</text>
</a>
</g>
</g>
<!-- Node19&#45;&gt;Node54 -->
<g id="edge48" class="edge">
<title>Node19&#45;&gt;Node54</title>
<path fill="none" stroke="midnightblue" d="M3374.88,-150.82C3132.97,-143.35 2554.04,-123.36 2360,-98 2357.25,-97.64 2354.44,-97.23 2351.61,-96.78"/>
<polygon fill="midnightblue" stroke="midnightblue" points="3374.99,-154.33 3385.1,-151.13 3375.21,-147.33 3374.99,-154.33"/>
</g>
<!-- Node55 -->
<g id="node43" class="node">
<title>Node55</title>
<g id="a_node43"><a xlink:href="../../dd/df6/vabstractmainwindow_8cpp.html" target="_top" xlink:title=" ">
<polygon fill="white" stroke="black" points="2369.5,-73 2369.5,-92 2598.5,-92 2598.5,-73 2369.5,-73"/>
<text text-anchor="middle" x="2484" y="-80" font-family="Helvetica,sans-Serif" font-size="10.00">src/libs/vwidgets/vabstractmainwindow.cpp</text>
</a>
</g>
</g>
<!-- Node19&#45;&gt;Node55 -->
<g id="edge49" class="edge">
<title>Node19&#45;&gt;Node55</title>
<path fill="none" stroke="midnightblue" d="M3375.14,-148.97C3209.67,-140.82 2883.32,-123.1 2607,-98 2588.69,-96.34 2568.89,-94.17 2550.64,-92.01"/>
<polygon fill="midnightblue" stroke="midnightblue" points="3375.16,-152.47 3385.32,-149.46 3375.5,-145.48 3375.16,-152.47"/>
</g>
<!-- Node56 -->
<g id="node44" class="node">
<title>Node56</title>
<g id="a_node44"><a xlink:href="../../de/d45/vcontrolpointspline_8cpp.html" target="_top" xlink:title=" ">
<polygon fill="white" stroke="black" points="2616.5,-73 2616.5,-92 2831.5,-92 2831.5,-73 2616.5,-73"/>
<text text-anchor="middle" x="2724" y="-80" font-family="Helvetica,sans-Serif" font-size="10.00">src/libs/vwidgets/vcontrolpointspline.cpp</text>
</a>
</g>
</g>
<!-- Node19&#45;&gt;Node56 -->
<g id="edge50" class="edge">
<title>Node19&#45;&gt;Node56</title>
<path fill="none" stroke="midnightblue" d="M3375.21,-145.85C3247.39,-135.91 3027.96,-117.93 2840,-98 2823.35,-96.23 2805.38,-94.1 2788.68,-92.02"/>
<polygon fill="midnightblue" stroke="midnightblue" points="3375.15,-149.36 3385.39,-146.64 3375.7,-142.38 3375.15,-149.36"/>
</g>
<!-- Node38&#45;&gt;Node39 -->
<g id="edge29" class="edge">
<title>Node38&#45;&gt;Node39</title>
<path fill="none" stroke="midnightblue" d="M3747.28,-58.87C3753.21,-49.46 3759.91,-38.83 3765.12,-30.58"/>
<polygon fill="midnightblue" stroke="midnightblue" points="3744.27,-57.07 3741.9,-67.4 3750.19,-60.81 3744.27,-57.07"/>
</g>
<!-- Node50&#45;&gt;Node51 -->
<g id="edge43" class="edge">
<title>Node50&#45;&gt;Node51</title>
<path fill="none" stroke="midnightblue" d="M4920.88,-64.71C4957.98,-54.14 5005.34,-40.63 5040.5,-30.61"/>
<polygon fill="midnightblue" stroke="midnightblue" points="4919.85,-61.37 4911.19,-67.48 4921.77,-68.1 4919.85,-61.37"/>
</g>
</g>
</svg>
